<svg width="0" height="0" class="hidden">
  <symbol xmlns="http://www.w3.org/2000/svg" viewBox="0 0 31.024 31.024" id="young-businessman">
    <path d="M20.349 19.543c.948-1.039 1.658-2.338 2.099-3.564.666-.358 1.193-1.065 1.403-1.897.188-.758.615-2.455-.305-3.26v-.916c.06-2.033-.161-4.851-2.695-6.082-.123-.392-.142-.701-.144-.724L20.399 0l-2.226 2.096c-.28.265-2.117.734-3.893.912l-.682.107C8.776 3.873 8.849 6.543 8.914 8.9c.009.303.018.623.018.979l.025.824c-.497.473-.882 1.424-.415 3.332.203.824.748 1.529 1.396 1.834.322.846 1.027 2.402 2.182 3.676-.782.232-1.532.523-2.241.877-.542-1.681-2.104-2.91-3.965-2.91a4.19 4.19 0 0 0-4.187 4.186 4.174 4.174 0 0 0 2.71 3.9c-.798 1.498-1.258 3.162-1.258 4.927v.5h26.118v-.5c.003-5.113-3.755-9.452-8.948-10.982zm2.617 10.481v-2.539a.5.5 0 0 0-1 0v2.539H10.515v-2.539a.5.5 0 1 0-1 0v2.539H4.196c.08-1.5.527-2.916 1.25-4.188.156.018.31.047.471.047a4.19 4.19 0 0 0 4.186-4.187c0-.063-.016-.123-.02-.188l5.79 6.574c.095.105.23.17.375.17h.004a.491.491 0 0 0 .376-.176l5.704-6.666c3.41 1.76 5.76 4.938 5.955 8.611h-5.32l-.001.003zM5.915 18.512a3.181 3.181 0 0 1 3.072 2.393c.045.172.07.35.086.529.008.088.026.172.026.264 0 .117-.022.229-.035.344a3.172 3.172 0 0 1-2.994 2.826c-.053.002-.103.016-.155.016-.149 0-.293-.021-.438-.045a2.816 2.816 0 0 1-.518-.115c-1.288-.408-2.23-1.604-2.23-3.023a3.19 3.19 0 0 1 3.186-3.189zm4.802-3.432l-.241-.072c-.413-.125-.816-.635-.959-1.211-.307-1.254-.224-2.146.229-2.445l.23-.151-.04-1.336c0-.351-.009-.681-.018-.992-.064-2.315-.115-4.146 3.839-4.769L14.41 4c.93-.094 3.741-.508 4.45-1.176l.744-.703.105 1.057c.003.057.037.58.271 1.188l.075.196.193.084c2.144.927 2.354 3.281 2.295 5.242v1.48l.257.144c.58.326.203 1.83.079 2.324-.152.607-.557 1.125-1.025 1.318l-.212.086-.071.217c-.449 1.334-1.248 2.793-2.338 3.809a5.311 5.311 0 0 1-.488.402 5.101 5.101 0 0 1-.646.416 4.008 4.008 0 0 1-1.857.472c-.194 0-.384-.018-.567-.043a4.025 4.025 0 0 1-1.29-.432 4.956 4.956 0 0 1-.658-.414 6.7 6.7 0 0 1-.483-.4c-1.371-1.285-2.155-3.174-2.437-3.951l-.09-.236zm6.813 10.405l-.791-3.103 1.061-.908-.157-.135a5.585 5.585 0 0 0 1.854-.994c.656.162 1.289.373 1.896.627l-3.863 4.513zm-2.793-4.171l-.187.16 1.058.908-.768 3.017-3.858-4.382c.636-.271 1.3-.498 1.991-.67a5.457 5.457 0 0 0 1.764.967zm-9.134 2.46l-1.678-1.363.314-.39.315-.387.255.207.735.598 1.287-1.241.728-.701.347.358.348.361-.774.747-1.609 1.553-.268.258z"></path>
  </symbol>
  <symbol xmlns="http://www.w3.org/2000/svg" viewBox="0 0 460.659 460.659" id="telemarketing-phone-operator">
    <path d="M441.078 445.659h-50.975v-15.367c0-35.193-9.385-62.355-27.895-80.732-8.308-8.248-17.36-13.585-25.66-17.052v-81.365c17.38-6.49 29.792-23.258 29.792-42.873a45.606 45.606 0 0 0-7.198-24.642c.81-6.425.491-12.245.14-15.683-.576-5.654-3.134-10.399-7.397-13.723-4.663-3.635-10.551-4.905-15.336-5.258v-24.366c0-47.798-12.369-80.892-37.814-101.172C278.96 7.666 252.099.214 214.315.01c-.064-.002-.128-.01-.192-.01-.197 0-.393.005-.589.005-.273-.001-.539-.005-.813-.005-.095 0-.187.011-.279.014-36.052.297-66.855 10.113-89.161 28.448-28.179 23.163-42.467 58.85-42.467 106.065v238.201c0 .714.106 1.402.292 2.057-7.002 15.369-10.549 33.92-10.549 55.507v15.367H19.582a7.499 7.499 0 0 0-7.5 7.5 7.5 7.5 0 0 0 7.5 7.5h421.496a7.5 7.5 0 0 0 0-15zM307.801 326.086H270.23v-22.734c0-.396-.04-.783-.1-1.163 24.057-9.941 39.262-26.521 48.52-40.897a121.146 121.146 0 0 0 2.897-4.744v71.258c-7.84-1.689-13.252-1.706-13.746-1.72zm13.746-111.369c-.396 2.247-2.355 12.177-7.837 24.303h-50.98c-.947 0-1.85.183-2.685.503-2.016-2.183-4.893-3.559-8.099-3.559h-8.279c-6.093 0-11.031 4.938-11.031 11.031 0 6.092 4.939 11.031 11.031 11.031h8.279c3.555 0 6.708-1.688 8.726-4.3a7.47 7.47 0 0 0 2.058.293h42.75c-16.808 25.55-41.854 39.607-74.453 41.781h-1.395c-32.767-2.185-57.904-16.371-74.713-42.169-11.735-18.011-15.267-35.843-15.808-38.913v-82.62h67.218c4.143 0 7.5-3.357 7.5-7.5v-5.375l10.075 10.554a7.5 7.5 0 0 0 5.425 2.321h92.218v82.619zM205.429 333.586v-26.469c7.174 1.836 14.973 3.117 23.472 3.668.162.011.323.016.485.016h1.887c.162 0 .323-.005.485-.016 8.499-.551 16.298-1.832 23.472-3.668v26.469c0 4.143 3.357 7.5 7.5 7.5h19.852c-2.912 26.259-25.229 46.751-52.252 46.751s-49.34-20.492-52.252-46.751h19.852a7.5 7.5 0 0 0 7.499-7.5zm145.91-125.316c0 11.117-5.93 20.874-14.792 26.276v-20.82c5.268-1.3 9.851-4.018 13.49-8.047.364-.403.712-.816 1.05-1.234.159 1.263.252 2.538.252 3.825zm-8.66-42.204c.716.563 1.477 1.408 1.68 3.401.892 8.739-.072 20.2-5.453 26.157a11.917 11.917 0 0 1-2.358 2.009v-33.597c2.325.27 4.651.867 6.131 2.03zM95.814 134.527c0-103.552 73.482-119.39 117.732-119.524 52.121.131 105.089 12.82 107.877 102.096h-88.885l-20.784-21.771a7.499 7.499 0 1 0-12.925 5.179V117.1h-67.218a7.499 7.499 0 0 0-7.5 7.5v90.733c0 .36.026.72.078 1.076.131.907 3.387 22.474 17.819 44.884 9.258 14.376 24.462 30.956 48.52 40.897-.06.38-.1.767-.1 1.163v22.734H152.91c-1.286.005-30.869.051-54.46 23.474-.907.9-1.774 1.84-2.638 2.782V134.527zM85.557 430.292c0-88.178 64.527-89.205 67.301-89.206h10.157c2.969 34.543 32.015 61.751 67.314 61.751 35.299 0 64.346-27.208 67.314-61.751h10.22c.332 0 8.101.059 18.227 3.475.286.123.582.224.885.311 7.692 2.709 16.624 7.351 24.664 15.333 15.569 15.457 23.463 39.038 23.463 70.088v15.367H85.557v-15.368z"></path>
    <circle cx="177.092" cy="166.997" r="8.952"></circle>
    <circle cx="283.566" cy="166.997" r="8.951"></circle>
    <path d="M221.974 193.323a7.499 7.499 0 0 0-7.5 7.5c0 8.026 6.529 14.556 14.556 14.556h2.6c8.026 0 14.556-6.529 14.556-14.556a7.5 7.5 0 1 0-14.987-.444h-1.736a7.503 7.503 0 0 0-7.489-7.056zm-13.723 49.175c-8.828-3.033-13.376-6.899-13.568-7.064a7.5 7.5 0 0 0-10.064 11.123c.663.605 6.824 6.027 18.757 10.127.808.277 1.63.409 2.438.409a7.5 7.5 0 0 0 2.437-14.595zm125.886 166.987h-23.055a7.5 7.5 0 0 0 0 15h23.055c4.143 0 7.5-3.357 7.5-7.5a7.5 7.5 0 0 0-7.5-7.5z"></path>
  </symbol>
  <symbol xmlns="http://www.w3.org/2000/svg" viewBox="0 0 512 512" id="shield">
    <path d="M256 40.01a9.969 9.969 0 0 0-9.99 9.99 9.961 9.961 0 0 0 8.99 9.938A9.97 9.97 0 0 0 265.99 50c0-5.538-4.46-9.99-9.99-9.99z"></path>
    <path d="M456 60c-27.57 0-50-22.43-50-50 0-5.522-4.478-10-10-10H116c-5.522 0-10 4.478-10 10 0 27.57-22.43 50-50 50-5.522 0-10 4.478-10 10v163.19c0 127.177 82.895 241.135 207.128 278.389a9.997 9.997 0 0 0 5.745-.001C380.415 475.119 466 363.149 466 233.19V70c0-5.522-4.478-10-10-10zm-10 173.19c0 119.448-76.221 222.892-190 258.353C143.128 456.365 66 351.984 66 233.19V79.288C96.611 74.89 120.89 50.611 125.288 20h261.424C391.11 50.611 415.389 74.89 446 79.288V233.19z"></path>
    <path d="M420.012 92.49c-20.854-9.133-37.369-25.648-46.502-46.502A10 10 0 0 0 364.35 40h-68.37c-5.522 0-10 4.478-10 10s4.478 10 10 10h62.047A109.933 109.933 0 0 0 406 107.973V233.19c0 97.863-58.749 182.303-150 216.104-91.251-33.802-150-118.241-150-216.104V107.973A109.938 109.938 0 0 0 153.973 60h62.047c5.522 0 10-4.478 10-10s-4.478-10-10-10h-68.37a10.002 10.002 0 0 0-9.16 5.988c-9.133 20.854-25.648 37.369-46.502 46.502A10.003 10.003 0 0 0 86 101.65v131.54c0 107.213 66.311 200.653 166.664 236.166a9.993 9.993 0 0 0 6.672 0C359.605 433.873 426 340.49 426 233.19V101.65c0-3.972-2.351-7.566-5.988-9.16z"></path>
    <path d="M256 146c-49.626 0-90 40.374-90 90s40.374 90 90 90 90-40.374 90-90-40.374-90-90-90zm0 160c-38.598 0-70-31.402-70-70s31.402-70 70-70 70 31.402 70 70-31.402 70-70 70z"></path>
    <path d="M303.071 208.928c-3.906-3.904-10.236-3.904-14.143 0L246 251.857l-12.929-12.928c-3.906-3.904-10.236-3.904-14.143 0-3.905 3.905-3.905 10.237 0 14.143l20 20C240.882 275.023 243.44 276 246 276s5.118-.977 7.071-2.929l50-50c3.905-3.905 3.905-10.237 0-14.143z"></path>
  </symbol>
  <symbol xmlns="http://www.w3.org/2000/svg" viewBox="0 0 64 64" id="script">
    <path d="M61 12H50V5a3 3 0 0 0-3-3H17a3 3 0 0 0-3 3v7H3a1 1 0 0 0-1 1v38a1 1 0 0 0 1 1h26v4h-6a1 1 0 0 0-.707.293l-4 4A1 1 0 0 0 19 62h26a1 1 0 0 0 .707-1.707l-4-4A1 1 0 0 0 41 56h-6v-4h26a1 1 0 0 0 1-1V13a1 1 0 0 0-1-1zM38.9 34.113a1 1 0 0 0-.759-.6L36 33.153v-2.306l2.139-.356a1 1 0 0 0 .649-1.568l-1.261-1.765 1.631-1.63 1.765 1.261a1 1 0 0 0 1.567-.65L42.847 24h2.306l.357 2.139a1 1 0 0 0 1.567.65l1.765-1.261 1.631 1.63-1.261 1.765a1 1 0 0 0 .649 1.568l2.139.356v2.306l-2.139.356a1 1 0 0 0-.649 1.568l1.261 1.765-1.631 1.63-1.765-1.261a1 1 0 0 0-1.567.65L45.153 40h-2.306l-.357-2.139a1 1 0 0 0-1.567-.65l-1.765 1.261-1.631-1.63 1.261-1.765a1 1 0 0 0 .112-.964zm11.1 6.03l2.485-2.486a1 1 0 0 0 .107-1.288l-.821-1.15 1.393-.233A1 1 0 0 0 54 34v-4a1 1 0 0 0-.836-.986l-1.393-.233.821-1.15a1 1 0 0 0-.107-1.288L50 23.857V18h6v28h-6zM16 5a1 1 0 0 1 1-1h30a1 1 0 0 1 1 1v18.671l-.781.558-.233-1.394A1 1 0 0 0 46 22h-4a1 1 0 0 0-.986.835l-.233 1.394-1.15-.821a1 1 0 0 0-1.288.107l-2.828 2.828a1 1 0 0 0-.107 1.288l.821 1.15-1.393.233A1 1 0 0 0 34 30v4a1 1 0 0 0 .836.986l1.393.233-.821 1.15a1 1 0 0 0 .107 1.288l2.828 2.828a1 1 0 0 0 1.288.107l1.15-.821.233 1.394A1 1 0 0 0 42 42h4a1 1 0 0 0 .986-.835l.233-1.394.781.558V46H16zM8 46V18h6v28zm34.586 14H21.414l2-2h17.172zM33 56h-2v-4h2zm27-6H4V14h10v2H7a1 1 0 0 0-1 1v30a1 1 0 0 0 1 1h50a1 1 0 0 0 1-1V17a1 1 0 0 0-1-1h-7v-2h10z"></path>
    <path d="M44 36a4 4 0 1 0-4-4 4 4 0 0 0 4 4zm0-6a2 2 0 1 1-2 2 2 2 0 0 1 2-2zm-19.707-9.293l1.414-1.414L20.414 14l5.293-5.293-1.414-1.414-6 6a1 1 0 0 0 0 1.414zm14.414 0l6-6a1 1 0 0 0 0-1.414l-6-6-1.414 1.414L42.586 14l-5.293 5.293zm-12.581.802L35.13 5.51l1.742.98-9.004 16zM29 38h3v-2h-7v-4h7v-2H21v-3h1v-2h-4v2h1v4a1 1 0 0 0 1 1h3v5a1 1 0 0 0 1 1h3v5a1 1 0 0 0 1 1h8v-2h-7zM19 22h2v2h-2z"></path>
  </symbol>
  <symbol xmlns="http://www.w3.org/2000/svg" viewBox="0 0 60 60" id="round-wall-clock">
    <path d="M30 0C13.458 0 0 13.458 0 30s13.458 30 30 30 30-13.458 30-30S46.542 0 30 0zm0 56.999c-14.888 0-27-12.112-27-27s12.112-27 27-27c14.889 0 27 12.112 27 27s-12.111 27-27 27z"></path>
    <path d="M10.917 28.833a1 1 0 0 0-1-1H4.583a1 1 0 0 0 0 2h5.334a1 1 0 0 0 1-1zm36.791 0a1 1 0 0 0 1 1h5.334a1 1 0 0 0 0-2h-5.334a1 1 0 0 0-1 1zM29.375 11.604a1 1 0 0 0 1-1V5.27a1 1 0 0 0-2 0v5.334a1 1 0 0 0 1 1zm0 36.791a1 1 0 0 0-1 1v5.334a1 1 0 1 0 2 0v-5.334a1 1 0 0 0-1-1z"></path>
    <circle cx="9.917" cy="18.249" r="1.167"></circle>
    <circle cx="49.875" cy="18.249" r="1.167"></circle>
    <circle cx="17.5" cy="9.104" r="1.167"></circle>
    <circle cx="41.25" cy="9.104" r="1.167"></circle>
    <circle cx="10.021" cy="41.749" r="1.167"></circle>
    <circle cx="49.979" cy="41.749" r="1.167"></circle>
    <circle cx="17.604" cy="50.896" r="1.167"></circle>
    <circle cx="41.354" cy="50.896" r="1.167"></circle>
    <path d="M26.221 12.05a1.001 1.001 0 0 0-1.892.65l6.019 17.512L17.052 43.18a.998.998 0 0 0 .699 1.715.997.997 0 0 0 .698-.283l13.75-13.409c.277-.271.373-.675.248-1.041L26.221 12.05z"></path>
  </symbol>
  <symbol xmlns="http://www.w3.org/2000/svg" viewBox="0 0 464.993 464.993" id="phone-with-message">
    <path d="M420.333 34.843C392.042 12.374 354.528 0 314.7 0c-39.829 0-77.345 12.374-105.635 34.843-28.798 22.871-44.658 53.435-44.658 86.062 0 57.425 49.55 106.388 118.672 118.226 1.412 18.275-5.145 36.457-18.065 49.501a7.499 7.499 0 0 0 5.328 12.778c36.819 0 68.419-26.381 75.696-62.233 32.012-5.464 61.188-19.345 82.664-39.423 23.402-21.881 36.291-49.883 36.291-78.849 0-32.627-15.86-63.191-44.66-86.062zm-82.036 190.351a7.5 7.5 0 0 0-6.443 8.115c-3.813 24.555-21.627 44.101-44.489 50.697a78.834 78.834 0 0 0 10.159-50.768l.008-.104a7.5 7.5 0 0 0-6.456-7.944c-64.705-8.943-111.668-52.802-111.668-104.286C179.407 62.509 240.1 15 314.7 15s135.293 47.509 135.293 105.904c0 51.495-46.975 95.355-111.696 104.29z"></path>
    <path d="M264.365 112.904c-4.411 0-8 3.589-8 8s3.589 8 8 8 8-3.589 8-8-3.589-8-8-8zm100.671 0c-4.411 0-8 3.589-8 8s3.589 8 8 8 8-3.589 8-8-3.588-8-8-8zm-50.336 0c-4.411 0-8 3.589-8 8s3.589 8 8 8 8-3.589 8-8-3.588-8-8-8zm5.712 251.185c-21.68-21.679-44.469-39.643-45.428-40.396a7.5 7.5 0 0 0-9.938.593l-28.422 28.423-92.282-92.283a7.501 7.501 0 0 0-10.606 10.607l97.585 97.586a7.5 7.5 0 0 0 10.607 0l28.955-28.956c7.964 6.538 23.893 20.004 38.923 35.034 15.068 15.067 28.587 31.068 35.104 39.008-12.627 12.522-38.239 34.346-57.346 36.107-37.341 3.457-107.579-38.325-170.818-101.563-63.24-63.24-105.005-133.484-101.565-170.82 1.761-19.106 23.586-44.72 36.107-57.345 7.94 6.517 23.94 20.035 39.009 35.104 15.015 15.015 28.49 30.954 35.033 38.923l-28.955 28.954a7.5 7.5 0 0 0 0 10.606l16.147 16.148a7.5 7.5 0 1 0 10.606-10.606l-10.844-10.845 28.422-28.422a7.5 7.5 0 0 0 .593-9.938c-.754-.959-18.718-23.748-40.397-45.428-21.679-21.679-44.468-39.643-45.428-40.396a7.5 7.5 0 0 0-9.712.377c-1.737 1.598-42.57 39.498-45.519 71.491-3.881 42.121 38.675 115.584 105.894 182.804 64.385 64.383 134.493 106.14 177.305 106.138 1.886 0 3.721-.081 5.497-.244 31.993-2.95 69.895-43.783 71.492-45.52a7.501 7.501 0 0 0 .377-9.713c-.752-.959-18.716-23.749-40.396-45.428z"></path>
  </symbol>
  <symbol xmlns="http://www.w3.org/2000/svg" viewBox="0 0 473.806 473.806" id="phone-call">
    <path d="M374.456 293.506c-9.7-10.1-21.4-15.5-33.8-15.5-12.3 0-24.1 5.3-34.2 15.4l-31.6 31.5c-2.6-1.4-5.2-2.7-7.7-4-3.6-1.8-7-3.5-9.9-5.3-29.6-18.8-56.5-43.3-82.3-75-12.5-15.8-20.9-29.1-27-42.6 8.2-7.5 15.8-15.3 23.2-22.8 2.8-2.8 5.6-5.7 8.4-8.5 21-21 21-48.2 0-69.2l-27.3-27.3c-3.1-3.1-6.3-6.3-9.3-9.5-6-6.2-12.3-12.6-18.8-18.6-9.7-9.6-21.3-14.7-33.5-14.7s-24 5.1-34 14.7l-.2.2-34 34.3c-12.8 12.8-20.1 28.4-21.7 46.5-2.4 29.2 6.2 56.4 12.8 74.2 16.2 43.7 40.4 84.2 76.5 127.6 43.8 52.3 96.5 93.6 156.7 122.7 23 10.9 53.7 23.8 88 26 2.1.1 4.3.2 6.3.2 23.1 0 42.5-8.3 57.7-24.8.1-.2.3-.3.4-.5 5.2-6.3 11.2-12 17.5-18.1 4.3-4.1 8.7-8.4 13-12.9 9.9-10.3 15.1-22.3 15.1-34.6 0-12.4-5.3-24.3-15.4-34.3l-54.9-55.1zm35.8 105.3c-.1 0-.1.1 0 0-3.9 4.2-7.9 8-12.2 12.2-6.5 6.2-13.1 12.7-19.3 20-10.1 10.8-22 15.9-37.6 15.9-1.5 0-3.1 0-4.6-.1-29.7-1.9-57.3-13.5-78-23.4-56.6-27.4-106.3-66.3-147.6-115.6-34.1-41.1-56.9-79.1-72-119.9-9.3-24.9-12.7-44.3-11.2-62.6 1-11.7 5.5-21.4 13.8-29.7l34.1-34.1c4.9-4.6 10.1-7.1 15.2-7.1 6.3 0 11.4 3.8 14.6 7l.3.3c6.1 5.7 11.9 11.6 18 17.9 3.1 3.2 6.3 6.4 9.5 9.7l27.3 27.3c10.6 10.6 10.6 20.4 0 31-2.9 2.9-5.7 5.8-8.6 8.6-8.4 8.6-16.4 16.6-25.1 24.4-.2.2-.4.3-.5.5-8.6 8.6-7 17-5.2 22.7l.3.9c7.1 17.2 17.1 33.4 32.3 52.7l.1.1c27.6 34 56.7 60.5 88.8 80.8 4.1 2.6 8.3 4.7 12.3 6.7 3.6 1.8 7 3.5 9.9 5.3.4.2.8.5 1.2.7 3.4 1.7 6.6 2.5 9.9 2.5 8.3 0 13.5-5.2 15.2-6.9l34.2-34.2c3.4-3.4 8.8-7.5 15.1-7.5 6.2 0 11.3 3.9 14.4 7.3l.2.2 55.1 55.1c10.3 10.2 10.3 20.7.1 31.3zm-154.2-286.1c26.2 4.4 50 16.8 69 35.8s31.3 42.8 35.8 69c1.1 6.6 6.8 11.2 13.3 11.2.8 0 1.5-.1 2.3-.2 7.4-1.2 12.3-8.2 11.1-15.6-5.4-31.7-20.4-60.6-43.3-83.5s-51.8-37.9-83.5-43.3c-7.4-1.2-14.3 3.7-15.6 11s3.5 14.4 10.9 15.6zm217.2 96.3c-8.9-52.2-33.5-99.7-71.3-137.5s-85.3-62.4-137.5-71.3c-7.3-1.3-14.2 3.7-15.5 11-1.2 7.4 3.7 14.3 11.1 15.6 46.6 7.9 89.1 30 122.9 63.7 33.8 33.8 55.8 76.3 63.7 122.9 1.1 6.6 6.8 11.2 13.3 11.2.8 0 1.5-.1 2.3-.2 7.3-1.1 12.3-8.1 11-15.4z"></path>
  </symbol>
  <symbol xmlns="http://www.w3.org/2000/svg" viewBox="0 0 512 512" id="microphone">
    <path d="M391.5 104.8v146c0 75.1-60.5 135.5-135.5 135.5s-135.5-60.5-135.5-135.5v-146H99.6v146c0 83 64.3 150.7 146 156v73.3h-52.1V501h125.1v-20.9h-52.1v-73.3c81.6-5.3 146-73 146-156v-146h-21z"></path>
    <path d="M256 344.6c52.1 0 93.8-41.7 93.8-93.8v-146c0-52.1-41.7-93.8-93.8-93.8s-93.8 41.7-93.8 93.8v146c0 52.1 41.7 93.8 93.8 93.8zm-73-166.8h41.7V157H183v-49h41.7V87.1h-39.6c7.8-31.9 36.3-55.3 70.8-55.3s63 23.3 70.8 55.3h-39.6V108H329v49h-41.7v20.9H329v73c0 40.7-32.3 73-73 73s-73-32.3-73-73v-73.1z"></path>
  </symbol>
  <symbol xmlns="http://www.w3.org/2000/svg" viewBox="0 0 441.948 441.948" id="inclined-rocket">
    <path d="M55.237 336.353c3.905-3.905 3.905-10.237 0-14.143-3.905-3.904-10.237-3.904-14.143 0L2.929 360.377c-3.905 3.905-3.905 10.237 0 14.143 1.952 1.952 4.512 2.929 7.071 2.929s5.119-.977 7.071-2.929l38.166-38.167zM306.916 68.629c-8.868 8.869-13.752 20.66-13.752 33.201 0 12.542 4.884 24.333 13.752 33.201 9.153 9.153 21.177 13.729 33.201 13.729s24.047-4.576 33.2-13.729c8.869-8.868 13.752-20.659 13.752-33.201 0-12.541-4.884-24.332-13.752-33.201-18.306-18.306-48.093-18.306-66.401 0zm52.259 52.26c-10.509 10.511-27.607 10.51-38.117 0-5.091-5.091-7.894-11.858-7.894-19.059 0-7.199 2.804-13.968 7.894-19.059 5.255-5.255 12.156-7.882 19.059-7.882 6.901 0 13.805 2.628 19.058 7.882 5.091 5.091 7.895 11.859 7.895 19.059 0 7.201-2.804 13.968-7.895 19.059zm-272.4 232.859c-3.905-3.904-10.237-3.904-14.142 0l-53.536 53.537c-3.905 3.905-3.905 10.237 0 14.143 1.953 1.952 4.512 2.929 7.071 2.929s5.119-.977 7.071-2.929l53.536-53.537c3.905-3.906 3.905-10.238 0-14.143z"></path>
    <path d="M435.581 13.329a10.001 10.001 0 0 0-6.961-6.962c-36.445-10.115-75.921-8.147-114.161 5.688-29.631 10.721-58.449 28.693-79.065 49.31l-31.096 31.096-112.654 17.597a10.004 10.004 0 0 0-5.528 2.809l-72.051 72.051a10.001 10.001 0 0 0 6.65 17.062l71.073 2.989-17.813 17.813c-3.905 3.905-3.905 10.237 0 14.143l10.397 10.396-31.053 47.599a10 10 0 0 0 1.304 12.535l79.871 79.87a10 10 0 0 0 12.536 1.304l47.597-31.054 10.397 10.397c3.905 3.904 10.237 3.904 14.143 0l17.813-17.813 2.989 71.071a10 10 0 0 0 17.062 6.651l72.051-72.051a10.008 10.008 0 0 0 2.81-5.528l17.598-112.653 31.095-31.096c20.616-20.616 38.589-49.434 49.31-79.064 13.833-38.239 15.8-77.716 5.686-114.16zM142.898 367.444L74.504 299.05l24.321-37.278 33.604 33.604-3.952 3.952c-3.906 3.905-3.906 10.237 0 14.143 3.905 3.904 10.237 3.904 14.143 0l3.952-3.952 33.604 33.604-37.278 24.321zm223.543-175.032l-33.401 33.402-.012.012-34.754 34.754c-3.905 3.905-3.905 10.237 0 14.143 3.905 3.904 10.237 3.904 14.143 0l13.082-13.082-12.865 82.354-53.64 53.641-2.804-66.686 27.943-27.943c3.905-3.905 3.905-10.237 0-14.143-3.905-3.904-10.237-3.904-14.143 0l-31.021 31.021-.05.05-26.824 26.823-8.917-8.917a11.29 11.29 0 0 0-.31-.309l-42.155-42.156 120.945-120.944c3.905-3.905 3.906-10.237 0-14.143-3.904-3.903-10.236-3.904-14.142 0L146.571 281.235l-42.157-42.157c-.1-.104-.202-.206-.307-.307l-8.917-8.918 26.824-26.824.049-.049 31.021-31.021c3.906-3.905 3.906-10.237 0-14.143-3.904-3.904-10.237-3.904-14.142 0l-27.943 27.943-66.686-2.805 53.64-53.64 82.354-12.864-13.082 13.081 14.142 14.143 34.649-34.649c.075-.073.15-.147.223-.223l33.296-33.296c27.828-27.827 93.904-69.058 168.203-51.297 17.761 74.3-23.47 140.377-51.297 168.203zM105.595 386.711l-38.166 38.166c-3.905 3.905-3.905 10.237 0 14.143 1.953 1.952 4.512 2.929 7.071 2.929s5.119-.977 7.071-2.929l38.166-38.166c3.905-3.905 3.905-10.237 0-14.143-3.904-3.905-10.236-3.905-14.142 0z"></path>
  </symbol>
  <symbol xmlns="http://www.w3.org/2000/svg" viewBox="0 0 264.355 264.355" id="handshake">
    <path d="M259.081 76.652L205.269 22.84c-3.407-3.407-7.936-5.283-12.754-5.283s-9.347 1.876-12.753 5.283l-12.646 12.645a17.908 17.908 0 0 0-4.203 6.67l-59.168-10.593-.013-.002c-26.604-5.281-52.579 12.015-57.944 38.622l-2.729 13.537c-3.014 14.949 6.697 29.562 21.646 32.576 14.95 3.012 29.563-6.697 32.577-21.646l1.668-8.278 26.533 2.32 69.29 69.29 12.558 12.558a6.53 6.53 0 0 1 0 9.224 6.53 6.53 0 0 1-9.223 0l-33.639-33.639a6 6 0 0 0-8.485 8.485l33.639 33.639a6.48 6.48 0 0 1 1.91 4.612 6.477 6.477 0 0 1-1.91 4.611 6.53 6.53 0 0 1-9.223 0l-33.639-33.639a6 6 0 0 0-8.485 8.485l33.639 33.639a6.529 6.529 0 0 1 0 9.223 6.479 6.479 0 0 1-4.611 1.91 6.48 6.48 0 0 1-4.612-1.91l-33.639-33.639a6 6 0 0 0-8.485 8.485l33.639 33.639a6.53 6.53 0 0 1 0 9.224 6.53 6.53 0 0 1-9.223 0L25.961 113.867 10.243 98.149a6 6 0 0 0-8.485 8.485l15.718 15.718 17.105 17.105-9.429 9.429a16.24 16.24 0 0 0-4.788 11.559c0 4.367 1.7 8.472 4.788 11.559l3.077 3.077a16.225 16.225 0 0 0 9.925 4.707 16.22 16.22 0 0 0 4.707 9.924l3.077 3.078a16.264 16.264 0 0 0 9.923 4.695 16.218 16.218 0 0 0 4.709 9.936l3.077 3.077a16.225 16.225 0 0 0 9.925 4.707 16.225 16.225 0 0 0 4.707 9.925l3.077 3.077c3.187 3.187 7.373 4.78 11.559 4.78s8.372-1.593 11.559-4.78l9.429-9.429 22.595 22.595c3.499 3.499 8.15 5.425 13.097 5.425s9.599-1.927 13.097-5.425c3.314-3.314 5.196-7.667 5.387-12.321 4.655-.191 9.007-2.073 12.322-5.387 3.416-3.416 5.195-7.845 5.38-12.329 4.483-.185 8.913-1.964 12.328-5.379 3.416-3.416 5.195-7.845 5.38-12.329 4.484-.185 8.914-1.964 12.329-5.38 7.222-7.222 7.222-18.972 0-26.194l-8.315-8.315 30.423-30.423 21.156-21.156c7.031-7.033 7.031-18.476-.001-25.508zM33.637 163.518a4.351 4.351 0 0 1 0-6.147l8.842-8.842 9.224 9.224-8.842 8.842a4.352 4.352 0 0 1-6.147 0l-3.077-3.077zm17.709 17.709a4.35 4.35 0 0 1 0-6.146l8.842-8.842 9.224 9.224-8.841 8.842a4.352 4.352 0 0 1-6.147 0l-3.078-3.078zm17.708 17.709c-.821-.821-1.273-1.913-1.273-3.073s.452-2.252 1.273-3.073l8.842-8.842 9.223 9.223-8.842 8.842a4.352 4.352 0 0 1-6.146 0l-3.077-3.077zm26.933 20.786a4.352 4.352 0 0 1-6.147 0l-3.077-3.077a4.351 4.351 0 0 1 0-6.147l8.842-8.842 9.224 9.224-8.842 8.842zm103.029-74.469l-66.592-66.592a5.992 5.992 0 0 0-3.72-1.734L94.651 73.95a6.002 6.002 0 0 0-6.404 4.792l-2.729 13.537c-1.706 8.462-9.974 13.958-18.442 12.253a15.553 15.553 0 0 1-9.946-6.683 15.553 15.553 0 0 1-2.307-11.759l2.729-13.536c4.066-20.169 23.774-33.275 43.951-29.204.042.008.085.017.128.024l58.306 10.439 7.179 7.179 58.081 58.081-26.181 26.18zm51.579-51.579l-16.914 16.914L175.6 52.507a5.998 5.998 0 0 1-1.768-4.269 6 6 0 0 1 1.768-4.269l12.646-12.646c1.14-1.14 2.656-1.768 4.268-1.768s3.128.628 4.269 1.768l53.812 53.812a5.998 5.998 0 0 1 1.768 4.269 6 6 0 0 1-1.768 4.27z"></path>
    <circle cx="236.071" cy="91.787" r="6"></circle>
  </symbol>
  <symbol xmlns="http://www.w3.org/2000/svg" viewBox="0 0 473.832 473.832" id="hair-cut">
    <path d="M187.549 345.272c-19.127-9.766-42.63-2.153-52.396 16.972-9.767 19.124-2.152 42.629 16.972 52.396a38.7 38.7 0 0 0 17.648 4.257c14.177 0 27.87-7.76 34.748-21.228 4.73-9.264 5.571-19.816 2.365-29.713-3.205-9.897-10.073-17.953-19.337-22.684zm3.613 45.574c-6.005 11.758-20.457 16.439-32.215 10.435-11.759-6.005-16.439-20.457-10.435-32.215 6.004-11.759 20.454-16.44 32.215-10.435a23.792 23.792 0 0 1 11.89 13.946c1.97 6.085 1.454 12.573-1.455 18.269zM84.016 221.663c-9.266-4.731-19.815-5.571-29.713-2.366-9.896 3.206-17.951 10.073-22.683 19.338-4.731 9.264-5.571 19.816-2.365 29.712 3.205 9.896 10.072 17.952 19.337 22.683 5.566 2.842 11.596 4.28 17.67 4.28 4.036 0 8.092-.635 12.042-1.915 9.896-3.206 17.952-10.073 22.684-19.337 4.731-9.264 5.571-19.816 2.365-29.712-3.205-9.896-10.072-17.952-19.337-22.683zm3.612 45.574c-2.908 5.696-7.861 9.918-13.946 11.889a23.786 23.786 0 0 1-18.268-1.454 23.795 23.795 0 0 1-11.89-13.946c-1.971-6.084-1.454-12.572 1.455-18.269 2.908-5.696 7.861-9.918 13.946-11.889a23.827 23.827 0 0 1 7.361-1.167c10.103 0 19.519 6.451 22.796 16.568a23.776 23.776 0 0 1-1.454 18.268z"></path>
    <path d="M471.555 235.152c-9.131-9.211-10.672-16.475-12.453-24.878-2-9.431-4.266-20.121-16.713-32.568-12.444-12.444-23.136-14.709-32.568-16.707-.594-.126-1.177-.25-1.756-.375l43.643-21.308a7.501 7.501 0 0 0-5.603-13.875l-63.55 20.584c-7.349-8.218-8.803-14.997-10.444-22.737-1.998-9.432-4.264-20.123-16.716-32.575-8.137-8.129-15.701-11.949-22.225-14.104l26.021-50.954a7.504 7.504 0 0 0-3.735-10.311c-3.297-1.425-7.152-.153-9.219 2.784l-36.553 51.955c-3.445-1.626-7.385-4.192-11.926-8.727-9.303-9.303-10.853-16.611-12.647-25.073-1.986-9.37-4.237-19.983-16.475-32.328-2.723-2.746-7.125-3.242-10.161-.847a7.503 7.503 0 0 0-.684 11.214c9.303 9.303 10.853 16.611 12.647 25.073 1.999 9.431 4.266 20.12 16.717 32.571 4.51 4.504 8.975 7.922 13.809 10.512l-12.268 17.437c-5.993-1.657-11.635-4.302-18.418-11.08-9.303-9.302-10.853-16.613-12.646-25.077-1.986-9.373-4.237-19.988-16.475-32.334-2.723-2.746-7.125-3.242-10.161-.847a7.503 7.503 0 0 0-.684 11.214c9.303 9.302 10.853 16.613 12.646 25.077 1.999 9.433 4.266 20.125 16.716 32.576 7.171 7.164 13.781 10.967 19.997 13.3l-60.691 86.264-92.354 29.914c-6.163-13.627-16.667-24.695-30.182-31.597-15.766-8.05-33.722-9.481-50.562-4.025-16.841 5.455-30.549 17.141-38.6 32.906-8.051 15.765-9.48 33.721-4.025 50.562 9.07 28.003 35.128 45.855 63.093 45.855 6.75 0 13.614-1.041 20.374-3.231 16.841-5.455 30.549-17.141 38.6-32.906 6.374-12.482 8.58-26.337 6.522-39.925a80.046 80.046 0 0 1 27.216 5.043c12.514 4.664 22.517 14.467 27.254 26.953.213.562.402 1.092.561 1.582 3.811 11.764 4.841 24.428 2.994 36.655-30.314-9.632-64.122 3.778-79.056 33.019-15.465 30.285-5.309 67.013 22.4 85.361l-13.238 25.922c-1.83 3.583-.717 8.104 2.758 10.132a7.501 7.501 0 0 0 10.474-3.059l13.361-26.164a65.73 65.73 0 0 0 23.156 4.212c24.124 0 47.427-13.206 59.131-36.124 15.465-30.284 5.309-67.012-22.399-85.36l44.681-87.494 98.437-48.061c11.216 10.048 20.974 12.123 29.663 13.966 8.462 1.794 15.771 3.344 25.074 12.648 9.301 9.296 10.848 16.604 12.64 25.064 1.997 9.432 4.261 20.123 16.71 32.566a7.478 7.478 0 0 0 5.302 2.195 7.48 7.48 0 0 0 5.2-2.095c3.01-2.897 2.851-7.937-.091-10.903-9.13-9.205-10.668-16.468-12.447-24.871-1.997-9.432-4.261-20.122-16.708-32.564-12.448-12.447-23.138-14.714-32.568-16.713-6.143-1.303-11.682-2.492-17.813-6.597l24.38-11.903c6.458 3.291 12.428 4.564 17.795 5.701 8.463 1.793 15.771 3.341 25.069 12.639 9.303 9.303 10.853 16.61 12.646 25.072 2 9.431 4.266 20.121 16.713 32.568a7.482 7.482 0 0 0 5.304 2.197 7.476 7.476 0 0 0 5.2-2.095c3.009-2.895 2.851-7.934-.09-10.901zM344.792 101.323c9.305 9.304 10.854 16.613 12.646 25.076 1.557 7.348 3.277 15.46 9.847 24.573l-20.995 6.8c-.655-2.3-1.152-4.624-1.659-7.019-1.997-9.43-4.261-20.117-16.698-32.563-3.675-3.682-7.431-6.695-11.351-9.097l9.661-18.917c5.717 1.553 11.542 4.147 18.549 11.147zm-35.063 21.191c2.555 1.673 5.048 3.729 7.592 6.277 9.297 9.303 10.844 16.61 12.636 25.071.588 2.773 1.195 5.601 2.055 8.536l-51.103 16.553 28.82-56.437zm-14.557-5.734c.192.043.383.089.574.133l-35.02 68.574-17.993 5.828 52.439-74.535zM107.513 277.391c-5.621 11.007-15.192 19.167-26.95 22.975-24.272 7.859-50.416-5.489-58.277-29.761-3.81-11.758-2.812-24.295 2.81-35.303 5.621-11.007 15.192-19.167 26.95-22.975a46.373 46.373 0 0 1 14.309-2.274c7.216 0 14.382 1.708 20.994 5.085 11.007 5.621 19.166 15.192 22.975 26.95 3.808 11.759 2.81 24.296-2.811 35.303zM349.654 172.45l-160.896 78.557a95.267 95.267 0 0 0-32.245-15.996l193.141-62.561zM211.045 401c-11.604 22.723-39.529 31.767-62.253 20.165-22.722-11.604-31.768-39.531-20.164-62.253 11.604-22.723 39.53-31.767 62.253-20.165 22.723 11.604 31.768 39.53 20.164 62.253zm-5.869-106.734a95.07 95.07 0 0 0-4.029-18.748 95.064 95.064 0 0 0-4.645-11.599l32.2-15.722-23.526 46.069z"></path>
  </symbol>
  <symbol xmlns="http://www.w3.org/2000/svg" viewBox="0 0 490.992 490.992" id="gears">
    <path d="M182.001 396.491c48.248 0 87.5-39.252 87.5-87.5s-39.252-87.5-87.5-87.5-87.5 39.252-87.5 87.5 39.253 87.5 87.5 87.5zm0-160c39.977 0 72.5 32.523 72.5 72.5s-32.523 72.5-72.5 72.5-72.5-32.523-72.5-72.5 32.524-72.5 72.5-72.5z"></path>
    <path d="M77.501 308.991c0-57.622 46.878-104.5 104.5-104.5 15.674 0 30.742 3.383 44.785 10.055a7.501 7.501 0 0 0 6.437-13.549c-16.07-7.635-33.303-11.506-51.222-11.506-65.893 0-119.5 53.607-119.5 119.5 0 27.129 8.863 52.704 25.63 73.958a7.487 7.487 0 0 0 5.893 2.855 7.499 7.499 0 0 0 5.883-12.145c-14.658-18.581-22.406-40.943-22.406-64.668zm202.503-54.776a7.5 7.5 0 0 0-3.556 9.993c6.671 14.043 10.053 29.11 10.053 44.783 0 57.622-46.878 104.5-104.5 104.5-23.732 0-46.099-7.752-64.682-22.418a7.5 7.5 0 1 0-9.293 11.775c21.257 16.776 46.837 25.643 73.975 25.643 65.893 0 119.5-53.607 119.5-119.5 0-17.917-3.871-35.149-11.504-51.22a7.5 7.5 0 0 0-9.993-3.556zm-30.811-25.262a105.584 105.584 0 0 1 12.853 12.854 7.484 7.484 0 0 0 5.746 2.675 7.5 7.5 0 0 0 5.738-12.325 120.467 120.467 0 0 0-14.685-14.686 7.5 7.5 0 0 0-10.567.916 7.498 7.498 0 0 0 .915 10.566z"></path>
    <path d="M487.421 124.809l-18.105-11.136a87.09 87.09 0 0 0-.14-11.711l17.799-11.617a7.5 7.5 0 0 0 3.18-8.086 111.711 111.711 0 0 0-14.352-33.376 7.497 7.497 0 0 0-8.057-3.254l-20.675 4.928a87.238 87.238 0 0 0-8.404-8.158l4.372-20.802a7.5 7.5 0 0 0-3.47-7.967c-5.69-3.428-11.017-6.114-16.283-8.213-5.271-2.101-10.985-3.815-17.469-5.241a7.498 7.498 0 0 0-7.999 3.396l-11.136 18.106a87.255 87.255 0 0 0-11.711.139L363.354 4.019a7.5 7.5 0 0 0-8.086-3.18 111.711 111.711 0 0 0-33.376 14.352 7.5 7.5 0 0 0-3.254 8.057l4.928 20.676a87.105 87.105 0 0 0-8.158 8.403l-20.802-4.372a7.5 7.5 0 0 0-7.967 3.47c-3.428 5.69-6.114 11.017-8.213 16.283-2.101 5.271-3.815 10.985-5.241 17.469a7.5 7.5 0 0 0 3.396 7.999l18.106 11.136a87.09 87.09 0 0 0 .14 11.711l-17.799 11.617a7.498 7.498 0 0 0-3.18 8.086c2.371 9.559 5.99 18.7 10.744 27.279L266.586 173.8a159.907 159.907 0 0 0-9.8-5.551l.358-21.644a7.5 7.5 0 0 0-4.614-7.047c-14.908-6.212-30.698-10.421-46.932-12.508a7.505 7.505 0 0 0-7.512 3.797l-10.465 18.84a94.068 94.068 0 0 0-11.239 0l-10.465-18.84a7.508 7.508 0 0 0-7.512-3.797c-16.234 2.087-32.024 6.295-46.932 12.508a7.5 7.5 0 0 0-4.614 7.047l.358 21.644a159.907 159.907 0 0 0-9.8 5.551l-18.425-11.048a7.497 7.497 0 0 0-8.416.477 184.466 184.466 0 0 0-34.336 34.336 7.499 7.499 0 0 0-.477 8.416l11.048 18.425a159.687 159.687 0 0 0-5.55 9.8l-21.644-.358c-3.021-.049-5.865 1.777-7.047 4.614C6.356 253.37 2.148 269.16.061 285.394a7.5 7.5 0 0 0 3.797 7.512l18.84 10.465c-.112 1.823-.197 3.693-.197 5.62s.085 3.796.197 5.62l-18.84 10.465a7.5 7.5 0 0 0-3.797 7.512c2.087 16.234 6.295 32.024 12.508 46.932 1.182 2.836 3.983 4.642 7.047 4.614l21.644-.358a159.907 159.907 0 0 0 5.551 9.8l-11.048 18.425a7.499 7.499 0 0 0 .477 8.416 184.466 184.466 0 0 0 34.336 34.336 7.499 7.499 0 0 0 8.416.477l18.425-11.048a159.907 159.907 0 0 0 9.8 5.551l-.358 21.644a7.5 7.5 0 0 0 4.614 7.047c14.908 6.213 30.698 10.421 46.932 12.508a7.51 7.51 0 0 0 7.512-3.797l10.465-18.84c3.646.224 7.593.224 11.239 0l10.465 18.84a7.5 7.5 0 0 0 7.512 3.797c16.234-2.087 32.024-6.295 46.932-12.508a7.5 7.5 0 0 0 4.614-7.047l-.358-21.644a159.907 159.907 0 0 0 9.8-5.551l18.425 11.048a7.5 7.5 0 0 0 8.416-.477 184.466 184.466 0 0 0 34.336-34.336 7.499 7.499 0 0 0 .477-8.416l-11.048-18.425a159.907 159.907 0 0 0 5.551-9.8l21.644.358c3.081.017 5.865-1.778 7.047-4.614 6.213-14.908 10.421-30.698 12.508-46.932a7.5 7.5 0 0 0-3.797-7.512l-18.84-10.465c.112-1.823.197-3.692.197-5.62s-.085-3.797-.197-5.62l18.84-10.465a7.5 7.5 0 0 0 3.797-7.512c-2.087-16.234-6.295-32.024-12.508-46.932-1.182-2.836-3.992-4.639-7.047-4.614l-21.644.358a160.213 160.213 0 0 0-5.55-9.8l10.788-17.991c4.381 2.465 8.579 4.495 12.736 6.151 5.27 2.101 10.984 3.815 17.469 5.241a7.501 7.501 0 0 0 7.998-3.396l11.137-18.106c3.924.217 7.838.169 11.711-.14l11.617 17.8a7.5 7.5 0 0 0 8.086 3.18 111.768 111.768 0 0 0 33.375-14.352 7.502 7.502 0 0 0 3.255-8.057l-4.928-20.676a87.227 87.227 0 0 0 8.158-8.403l20.802 4.372a7.506 7.506 0 0 0 7.967-3.47c3.428-5.69 6.114-11.017 8.213-16.283 2.101-5.27 3.815-10.984 5.241-17.469a7.5 7.5 0 0 0-3.397-7.998zM318.306 249.282l21.156-.351a167.553 167.553 0 0 1 8.883 33.37l-18.483 10.268a7.499 7.499 0 0 0-3.842 7.038c.045.699.093 1.398.142 2.097.175 2.527.341 4.915.341 7.287s-.166 4.759-.341 7.286c-.048.699-.097 1.398-.142 2.098a7.5 7.5 0 0 0 3.842 7.038l18.483 10.268a167.553 167.553 0 0 1-8.883 33.37l-21.156-.35a7.508 7.508 0 0 0-6.847 4.174c-3.144 6.356-6.194 11.719-9.325 16.394a7.5 7.5 0 0 0-.2 8.03l10.779 17.976a169.492 169.492 0 0 1-24.428 24.428l-17.976-10.779a7.498 7.498 0 0 0-8.03.2c-4.675 3.131-10.038 6.181-16.394 9.325a7.5 7.5 0 0 0-4.174 6.847l.35 21.156a167.553 167.553 0 0 1-33.37 8.883l-10.268-18.483a7.5 7.5 0 0 0-7.038-3.842c-.7.045-1.398.093-2.098.142-2.527.175-4.914.341-7.286.341s-4.759-.166-7.286-.341c-.699-.048-1.398-.097-2.098-.142a7.473 7.473 0 0 0-7.038 3.842l-10.268 18.483a167.553 167.553 0 0 1-33.37-8.883l.35-21.156a7.5 7.5 0 0 0-4.174-6.847c-6.356-3.144-11.719-6.194-16.394-9.325a7.505 7.505 0 0 0-8.03-.2l-17.976 10.779a169.492 169.492 0 0 1-24.428-24.428l10.779-17.976a7.5 7.5 0 0 0-.2-8.03c-3.131-4.675-6.181-10.038-9.325-16.394-1.284-2.597-3.913-4.199-6.847-4.174l-21.156.35a167.553 167.553 0 0 1-8.883-33.37l18.483-10.268a7.499 7.499 0 0 0 3.842-7.038c-.045-.7-.093-1.398-.142-2.098-.175-2.527-.341-4.914-.341-7.286 0-2.373.166-4.76.341-7.287.048-.699.097-1.397.142-2.097a7.5 7.5 0 0 0-3.842-7.038l-18.483-10.268a167.486 167.486 0 0 1 8.883-33.37l21.156.351c2.895.033 5.563-1.577 6.847-4.174 3.143-6.354 6.193-11.717 9.325-16.395a7.5 7.5 0 0 0 .2-8.03l-10.779-17.976a169.492 169.492 0 0 1 24.428-24.428l17.976 10.779a7.499 7.499 0 0 0 8.03-.2c4.675-3.131 10.038-6.181 16.394-9.325a7.5 7.5 0 0 0 4.174-6.847l-.35-21.156a167.553 167.553 0 0 1 33.37-8.883l10.268 18.483a7.477 7.477 0 0 0 7.038 3.842c.7-.045 1.398-.093 2.098-.142 2.527-.175 4.914-.341 7.286-.341s4.759.166 7.286.341c.699.048 1.398.097 2.098.142a7.5 7.5 0 0 0 7.038-3.842l10.268-18.483a167.553 167.553 0 0 1 33.37 8.883l-.35 21.156a7.5 7.5 0 0 0 4.174 6.847c6.356 3.144 11.719 6.194 16.394 9.325a7.499 7.499 0 0 0 8.03.2l17.976-10.779a169.492 169.492 0 0 1 24.428 24.428l-10.779 17.976a7.5 7.5 0 0 0 .2 8.03c3.132 4.678 6.182 10.04 9.325 16.395 1.285 2.597 3.924 4.209 6.847 4.174zm-15.61-78.463l14.235-3.393a87.235 87.235 0 0 0 8.404 8.158l-3.167 15.068a184.457 184.457 0 0 0-19.472-19.833zm168.946-26.096c-1.231 3.088-2.715 6.229-4.495 9.506l-19.972-4.197a7.498 7.498 0 0 0-7.515 2.803c-3.609 4.75-7.74 9.004-12.276 12.641a7.497 7.497 0 0 0-2.604 7.59l4.723 19.815a96.718 96.718 0 0 1-19.289 8.295l-11.133-17.059a7.496 7.496 0 0 0-7.3-3.331c-5.763.791-11.691.863-17.622.214a7.502 7.502 0 0 0-7.204 3.526l-10.692 17.383c-3.602-.962-6.902-2.045-9.993-3.277-3.088-1.231-6.229-2.715-9.506-4.495l4.197-19.972a7.502 7.502 0 0 0-2.803-7.515c-4.75-3.608-9.003-7.739-12.642-12.277a7.495 7.495 0 0 0-7.59-2.604l-19.815 4.723a96.69 96.69 0 0 1-8.294-19.289l17.059-11.133a7.498 7.498 0 0 0 3.331-7.301c-.791-5.76-.863-11.688-.214-17.62a7.5 7.5 0 0 0-3.526-7.204l-17.383-10.692c.962-3.602 2.045-6.902 3.277-9.993 1.231-3.088 2.715-6.229 4.495-9.506l19.971 4.197a7.505 7.505 0 0 0 7.515-2.803 72.047 72.047 0 0 1 12.276-12.641 7.501 7.501 0 0 0 2.605-7.591L334.5 25.101a96.714 96.714 0 0 1 19.289-8.294l11.133 17.058a7.499 7.499 0 0 0 7.301 3.331c5.758-.79 11.687-.862 17.62-.214a7.504 7.504 0 0 0 7.204-3.526l10.692-17.383c3.602.962 6.902 2.045 9.993 3.277 3.088 1.231 6.229 2.715 9.506 4.495l-4.197 19.972a7.5 7.5 0 0 0 2.803 7.515c4.752 3.61 9.005 7.741 12.642 12.277a7.5 7.5 0 0 0 7.59 2.604l19.815-4.723a96.714 96.714 0 0 1 8.294 19.289l-17.059 11.133a7.498 7.498 0 0 0-3.331 7.301c.791 5.761.863 11.689.215 17.62a7.5 7.5 0 0 0 3.526 7.204l17.382 10.692c-.961 3.602-2.044 6.903-3.276 9.994z"></path>
    <path d="M399.589 64.868c-24.332-9.698-52.013 2.206-61.711 26.536-9.698 24.33 2.206 52.014 26.536 61.711a47.252 47.252 0 0 0 17.53 3.377c18.879 0 36.776-11.335 44.182-29.914 9.697-24.329-2.207-52.013-26.537-61.71zm12.602 56.157c-6.635 16.646-25.576 24.791-42.224 18.156-16.646-6.636-24.792-25.577-18.156-42.224 5.067-12.712 17.312-20.467 30.23-20.467 3.998 0 8.06.743 11.994 2.311 16.647 6.636 24.792 25.577 18.156 42.224z"></path>
  </symbol>
  <symbol xmlns="http://www.w3.org/2000/svg" viewBox="0 0 240.811 240.811" id="download">
    <path d="M220.088 57.667l-99.671 99.695-99.671-99.707a12.147 12.147 0 0 0-17.191 0c-4.74 4.752-4.74 12.451 0 17.203l108.261 108.297c4.74 4.752 12.439 4.752 17.179 0L237.256 74.859c4.74-4.752 4.74-12.463 0-17.215-4.728-4.729-12.428-4.729-17.168.023z"></path>
  </symbol>
  <symbol xmlns="http://www.w3.org/2000/svg" viewBox="0 0 512 512" id="dialogue">
    <path d="M440 81.653H168a8 8 0 0 1 0-16h272a8 8 0 0 1 0 16zm0 96h-16a8 8 0 0 1 0-16h16a8 8 0 0 1 0 16zm0 48.002a8.06 8.06 0 0 1-5.66-2.35 8.045 8.045 0 0 1-2.34-5.65c0-2.11.85-4.17 2.34-5.66 1.49-1.49 3.56-2.34 5.66-2.34s4.17.85 5.66 2.34a8.05 8.05 0 0 1 2.34 5.66c0 2.1-.85 4.16-2.34 5.65a8.06 8.06 0 0 1-5.66 2.35zm0-96.002H296a8 8 0 0 1 0-16h144a8 8 0 0 1 0 16zm-176 0h-96a8 8 0 0 1 0-16h96a8 8 0 0 1 0 16z"></path>
    <path d="M455.983 350.347a15.956 15.956 0 0 1-11.297-4.694l-10.343-10.343a7.999 7.999 0 0 1 0-11.314 8 8 0 0 1 11.313 0l10.338 10.338.006-53.408a8 8 0 0 1 6.66-7.887c19.007-3.23 33.34-20.162 33.34-39.386v-176c0-22.056-17.944-40-40-40H152c-22.056 0-40 17.944-40 40v80a8 8 0 0 1-16 0v-80c0-30.878 25.122-56 56-56h304c30.878 0 56 25.122 56 56v176c0 25.064-16.461 46.632-40 53.614v47.072a15.952 15.952 0 0 1-9.877 14.782 16.024 16.024 0 0 1-6.14 1.226z"></path>
    <path d="M344 241.653H72a8 8 0 0 1 0-16h272a8 8 0 0 1 0 16zm0 96H240a8 8 0 0 1 0-16h104a8 8 0 0 1 0 16zm-136 0H72a8 8 0 0 1 0-16h136a8 8 0 0 1 0 16zm136 48H72a8 8 0 0 1 0-16h272a8 8 0 0 1 0 16zm-224-96H72a8 8 0 0 1 0-16h48a8 8 0 0 1 0 16zm224 0H152a8 8 0 0 1 0-16h192a8 8 0 0 1 0 16z"></path>
    <path d="M56.017 510.347a16.02 16.02 0 0 1-6.139-1.226 15.953 15.953 0 0 1-9.877-14.782v-47.072c-23.539-6.982-40-28.55-40-53.614v-176c0-30.878 25.122-56 56-56h304c30.878 0 56 25.122 56 56v176c0 30.878-25.122 56-56 56H123.313l-56 56a15.954 15.954 0 0 1-11.296 4.694zM56 177.653c-22.056 0-40 17.944-40 40v176c0 19.224 14.333 36.156 33.34 39.386a8 8 0 0 1 6.66 7.887v53.406l58.343-58.336a8 8 0 0 1 5.657-2.343h240c22.056 0 40-17.944 40-40v-176c0-22.056-17.944-40-40-40H56z"></path>
  </symbol>
  <symbol xmlns="http://www.w3.org/2000/svg" viewBox="0 0 496 496" id="customer-service">
    <path d="M402.524 432l-18.52-55.568a56.001 56.001 0 0 0-43.112-37.384l-53.464-9.728v-4.144c9.304-5.4 17.4-12.624 23.848-21.176h16.152c13.232 0 24-10.768 24-24v-96c0-57.344-46.656-104-104-104s-104 46.656-104 104v56c0 15.424 10.968 28.328 25.512 31.336 4.488 22.992 18.856 42.448 38.488 53.84v4.144l-53.472 9.728a55.99 55.99 0 0 0-43.104 37.384l-3.2 9.608-27.248-27.248c-3.12-3.12-3.12-8.2 0-11.32l31.6-31.592-59.312-59.312L16.98 292.28C6.404 302.856.58 316.92.58 331.88s5.824 29.016 16.4 39.592l108.12 108.12C135.676 490.168 149.74 496 164.7 496s29.016-5.832 39.344-16.168l38.968-35.704L230.86 432h171.664zm-67.096-152c0 4.416-3.592 8-8 8H320.7a79.46 79.46 0 0 0 5.216-16.664c3.424-.712 6.576-2.072 9.512-3.784V280zm-8-26.224v-27.552c4.76 2.776 8 7.88 8 13.776s-3.24 11-8 13.776zm-160 0c-4.76-2.776-8-7.88-8-13.776s3.24-11 8-13.776v27.552zm0-53.776v9.136a31.73 31.73 0 0 0-8 3.312V184c0-48.52 39.48-88 88-88s88 39.48 88 88v28.448a31.44 31.44 0 0 0-8-3.312V200h-8c-23.656 0-45.896-9.216-62.632-25.944l-9.368-9.368-9.368 9.368C221.324 190.784 199.084 200 175.428 200h-8zm16 56v-40.304c24.024-1.808 46.424-11.72 64-28.432 17.576 16.712 39.976 26.632 64 28.432V256c0 11.664-3.184 22.576-8.656 32h-55.344v16h42.192c-11.28 9.928-26.024 16-42.192 16-35.288 0-64-28.712-64-64zm88 76.312v.376l-24 24-24-24v-.376c7.584 2.384 15.64 3.688 24 3.688s16.416-1.304 24-3.688zM126.02 381.488a40.014 40.014 0 0 1 30.792-26.712l55.92-10.16 34.696 34.696 34.688-34.688 55.912 10.16a40 40 0 0 1 30.792 26.712L380.332 416H214.86l-31.16-31.16-34.624 31.32c-3.016 3.032-8.288 3.032-11.312 0l-17.472-17.472 5.728-17.2zM52.684 279.192l36.688 36.688-8.688 8.688-36.688-36.688 8.688-8.688zm140.28 189.104c-7.552 7.536-17.6 11.704-28.28 11.704s-20.728-4.168-28.288-11.72L28.276 360.168c-7.552-7.552-11.712-17.6-11.712-28.28 0-10.688 4.16-20.736 11.712-28.288l4.4-4.4 36.688 36.688-.288.288c-9.352 9.36-9.352 24.584 0 33.944l57.368 57.368c4.536 4.528 10.56 7.032 16.976 7.032s12.44-2.496 16.68-6.752l.6-.536 36.856 36.856-4.592 4.208zm16.4-15.04l-36.776-36.776 10.568-9.552 36.712 36.712-10.504 9.616zM471.428 0h-112c-13.232 0-24 10.768-24 24v64c0 13.232 10.768 24 24 24h21.368l-8.272 48.248 77.2-48.248h21.704c13.232 0 24-10.768 24-24V24c0-13.232-10.768-24-24-24zm8 88c0 4.408-3.592 8-8 8h-26.296l-50.808 31.752L399.772 96h-40.344c-4.408 0-8-3.592-8-8V24c0-4.408 3.592-8 8-8h112c4.408 0 8 3.592 8 8v64z"></path>
    <path d="M367.428 32h96v16h-96zm0 32h64v16h-64zm80 0h16v16h-16zm-200-40C142.9 24 52.86 96.304 29.452 197.16l-15.16-25.272-13.72 8.232 28.12 46.856 46.856-28.12-8.232-13.72-21.68 13.008C68.308 105.88 151.276 40 247.428 40c21.016 0 41.752 3.12 61.632 9.28L313.796 34c-21.416-6.64-43.744-10-66.368-10zM491.54 177.136l-46.856-28.12-28.112 46.864 13.72 8.232 14-23.336c7.368 21.56 11.136 44.112 11.136 67.224 0 47.576-16.48 94.088-46.392 130.96l12.424 10.08c32.224-39.712 49.968-89.808 49.968-141.04 0-24.472-3.944-48.368-11.632-71.248l23.512 14.104 8.232-13.72z"></path>
  </symbol>
  <symbol xmlns="http://www.w3.org/2000/svg" viewBox="0 0 512 512" id="conversation">
    <path d="M181.72 366.814a10.002 10.002 0 0 0-2.208-.362c10.954-11.513 17.7-27.066 17.7-44.174v-52.611c0-.481-.046-.95-.111-1.412.066-.95.111-1.906.111-2.872v-33.286c0-5.523-4.477-10-10-10h-67.073c-28.245 0-51.223 22.979-51.223 51.223v48.958c0 17.108 6.745 32.661 17.7 44.174a9.984 9.984 0 0 0-2.206.362C37.153 371.093 0 410.924 0 459.276V502c0 5.523 4.477 10 10 10h246.127c5.523 0 10-4.477 10-10v-42.724c0-48.351-37.151-88.182-84.407-92.462zm-92.804-80.813v-12.682c0-17.216 14.007-31.223 31.223-31.223h57.073v23.286c0 11.723-9.537 21.26-21.26 21.26H88.916v-.641zm0 20.641h67.036a40.998 40.998 0 0 0 21.26-5.914v21.549c0 24.343-19.805 44.148-44.148 44.148-24.343 0-44.148-19.805-44.148-44.148v-15.635zm65.913 79.784l-21.765 21.766-21.765-21.766h43.53zM246.128 492H20v-20h41.5c5.523 0 10-4.477 10-10s-4.477-10-10-10H20.365c3.359-33.716 29.806-60.717 63.255-64.969l42.373 42.373a10.001 10.001 0 0 0 14.142 0l42.373-42.373c35.824 4.553 63.62 35.204 63.62 72.245V492zm181.467-347.282a10.01 10.01 0 0 0-2.21-.362c10.954-11.513 17.699-27.066 17.699-44.174V47.57c0-.481-.046-.95-.111-1.412.066-.95.111-1.906.111-2.872V10c0-5.523-4.477-10-10-10h-67.073c-28.245 0-51.223 22.979-51.223 51.223v48.958c0 17.108 6.745 32.661 17.699 44.174a10.02 10.02 0 0 0-2.21.362c-47.255 4.281-84.405 44.112-84.405 92.462v42.723c0 5.523 4.477 10 10 10h80.46c5.523 0 10-4.477 10-10s-4.477-10-10-10h-70.46V237.18c0-37.041 27.795-67.692 63.619-72.245l42.373 42.373c1.953 1.953 4.512 2.929 7.071 2.929s5.119-.976 7.071-2.929l42.373-42.373C464.205 169.489 492 200.139 492 237.18v32.723h-73.667c-5.523 0-10 4.477-10 10s4.477 10 10 10H502c5.523 0 10-4.477 10-10V237.18c0-48.35-37.151-88.181-84.405-92.462zm-48.658 41.377l-21.765-21.765h43.53l-21.765 21.765zm44.148-85.914c0 24.343-19.805 44.148-44.148 44.148s-44.148-19.804-44.148-44.147V84.546h67.036a41.007 41.007 0 0 0 21.26-5.914v21.549zm0-56.895c0 11.723-9.537 21.26-21.26 21.26h-67.036V51.223c0-17.216 14.007-31.223 31.223-31.223h57.073v23.286z"></path>
    <path d="M386.01 272.83a10.076 10.076 0 0 0-7.07-2.93c-2.64 0-5.21 1.07-7.07 2.93a10.033 10.033 0 0 0-2.93 7.07c0 2.64 1.06 5.21 2.93 7.07 1.86 1.87 4.43 2.93 7.07 2.93 2.63 0 5.21-1.06 7.07-2.93 1.86-1.86 2.93-4.43 2.93-7.07 0-2.63-1.07-5.21-2.93-7.07zM267.405 139.929l-41.821-41.821V50c0-27.57-22.43-50-50-50H50C22.43 0 0 22.43 0 50v88c0 27.57 22.43 50 50 50h125.583c20.674 0 38.702-12.407 46.266-31h38.484a10.002 10.002 0 0 0 7.072-17.071zM214.554 137a10 10 0 0 0-9.746 7.758C201.66 158.442 189.643 168 175.583 168H50c-16.542 0-30-13.458-30-30V50c0-16.542 13.458-30 30-30h125.583c16.542 0 30 13.458 30 30v52.25c0 2.652 1.054 5.196 2.929 7.071L236.191 137h-21.637zM462 324H336.417c-20.674 0-38.702 12.407-46.266 31h-38.484a10.002 10.002 0 0 0-7.072 17.071l41.821 41.821V462c0 27.57 22.43 50 50 50H462c27.57 0 50-22.43 50-50v-88c0-27.57-22.43-50-50-50zm30 138c0 16.542-13.458 30-30 30H336.417c-16.542 0-30-13.458-30-30v-52.25c0-2.652-1.054-5.196-2.929-7.071L275.809 375h21.637a10 10 0 0 0 9.746-7.758C310.34 353.558 322.357 344 336.417 344H462c16.542 0 30 13.458 30 30v88z"></path>
    <path d="M444.156 391.392c-3.904-3.905-10.236-3.905-14.141 0l-26.583 26.583-12.361-12.361c-3.905-3.905-10.237-3.905-14.143 0-3.905 3.905-3.905 10.237 0 14.143l19.432 19.432c1.953 1.953 4.512 2.929 7.071 2.929s5.119-.976 7.071-2.929l33.654-33.654c3.905-3.905 3.905-10.237 0-14.143zM158.253 66.268c-1.182-17.147-15.004-30.969-32.151-32.151-9.723-.669-18.991 2.611-26.091 9.239a34.796 34.796 0 0 0-11.017 25.349c.001 5.524 4.478 10.001 10.001 10.001s10-4.477 10-10c0-4.111 1.656-7.921 4.664-10.729 3.003-2.804 6.938-4.196 11.069-3.906 7.239.499 13.074 6.334 13.573 13.573.505 7.319-4.293 13.787-11.408 15.379-7.788 1.742-13.227 8.513-13.227 16.465v5.335c0 5.523 4.477 10 10 10s10-4.477 10-10v-2.91c15.494-4.622 25.719-19.229 24.587-35.645zM130.74 136.02a10.076 10.076 0 0 0-7.07-2.93c-2.64 0-5.21 1.07-7.07 2.93-1.87 1.86-2.93 4.44-2.93 7.07s1.06 5.21 2.93 7.07c1.86 1.86 4.43 2.93 7.07 2.93 2.63 0 5.21-1.07 7.07-2.93 1.86-1.86 2.93-4.44 2.93-7.07s-1.07-5.21-2.93-7.07zm-22.17 318.91c-1.86-1.86-4.44-2.93-7.07-2.93s-5.21 1.07-7.07 2.93-2.93 4.44-2.93 7.07 1.07 5.21 2.93 7.07c1.86 1.86 4.44 2.93 7.07 2.93s5.21-1.07 7.07-2.93 2.93-4.44 2.93-7.07-1.07-5.21-2.93-7.07z"></path>
  </symbol>
  <symbol xmlns="http://www.w3.org/2000/svg" viewBox="0 0 512 512" id="comb">
    <path d="M482.344 103.03l-64.888-64.888a75.6 75.6 0 0 0-106.912 0l-4.2 4.2 11.314 11.314 4.2-4.2a59.6 59.6 0 0 1 84.284 0l64.888 64.888a30.638 30.638 0 0 1 4.4 37.767l-93.773-93.768-11.314 11.314L464.686 164 452 176.686l-94.343-94.343-11.314 11.314L440.686 188 428 200.686l-94.343-94.343-11.314 11.314L416.686 212 404 224.686l-94.343-94.343-11.314 11.314L392.686 236 380 248.686l-94.343-94.343-11.314 11.314L368.686 260 356 272.686l-94.343-94.343-11.314 11.314L344.686 284 332 296.686l-94.343-94.343-11.314 11.314L320.686 308 308 320.686l-94.343-94.343-11.314 11.314L296.686 332 284 344.686l-94.343-94.343-11.314 11.314L272.686 356 260 368.686l-94.343-94.343-11.314 11.314L248.686 380 236 392.686l-94.343-94.343-11.314 11.314L224.686 404 212 416.686l-94.343-94.343-11.314 11.314L200.686 428 188 440.686l-94.343-94.343-11.314 11.314L176.686 452 164 464.686l-94.343-94.343-11.314 11.314 93.768 93.768a30.638 30.638 0 0 1-37.767-4.4l-64.888-64.883a59.6 59.6 0 0 1 0-84.284l252.2-252.2-11.313-11.315-252.2 252.2a75.6 75.6 0 0 0 0 106.912l64.888 64.888a46.628 46.628 0 0 0 65.941 0l313.371-313.372a46.628 46.628 0 0 0 0-65.941z"></path>
  </symbol>
  <symbol viewBox="-43 0 512 512" xmlns="http://www.w3.org/2000/svg" id="checklist">
    <path d="M25.602 512h324.265c14.137 0 25.598-11.46 25.598-25.602V85.332h34.137c9.425 0 17.066-7.64 17.066-17.066V42.668C426.637 19.113 407.551.028 384 0H25.602C11.46 0 0 11.46 0 25.602v460.796C0 500.54 11.46 512 25.602 512zM384 17.066c14.137 0 25.602 11.461 25.602 25.602v25.598H68.266V42.668a42.216 42.216 0 0 0-8.754-25.602zM17.066 25.602a8.534 8.534 0 0 1 8.536-8.536c14.136 0 25.597 11.461 25.597 25.602v25.598c0 9.425 7.64 17.066 17.067 17.066h290.132v401.066a8.533 8.533 0 0 1-8.53 8.536H25.601a8.534 8.534 0 0 1-8.536-8.536zm0 0"></path>
    <path d="M68.266 213.332h51.199c9.426 0 17.07-7.64 17.07-17.066v-8.532a8.536 8.536 0 0 0-17.07 0v8.532h-51.2v-51.2h25.602a8.533 8.533 0 0 0 0-17.066H68.266c-9.426 0-17.067 7.64-17.067 17.066v51.2c0 9.425 7.64 17.066 17.067 17.066zm0 119.468h51.199c9.426 0 17.07-7.64 17.07-17.066v-51.199c0-9.426-7.644-17.07-17.07-17.07h-51.2c-9.425 0-17.066 7.644-17.066 17.07v51.2c0 9.425 7.64 17.066 17.067 17.066zm0-68.265h51.199v51.2h-51.2zm0 187.731h51.199c9.426 0 17.07-7.641 17.07-17.067V384c0-9.426-7.644-17.066-17.07-17.066h-51.2c-9.425 0-17.066 7.64-17.066 17.066v51.2c0 9.425 7.64 17.066 17.067 17.066zm0-68.266h51.199v51.2h-51.2zm102.402-221.867h42.664a8.533 8.533 0 1 0 0-17.067h-42.664a8.534 8.534 0 1 0 0 17.067zm76.797 0H332.8c4.71 0 8.531-3.82 8.531-8.531a8.533 8.533 0 0 0-8.531-8.536h-85.336a8.533 8.533 0 0 0-8.531 8.536c0 4.71 3.82 8.53 8.53 8.53zm-76.797 34.133H256c4.71 0 8.535-3.82 8.535-8.532A8.536 8.536 0 0 0 256 179.2h-85.332a8.534 8.534 0 1 0 0 17.067zM332.8 179.2h-42.667a8.533 8.533 0 0 0-8.531 8.534 8.532 8.532 0 0 0 8.53 8.532h42.669c4.71 0 8.531-3.82 8.531-8.532a8.533 8.533 0 0 0-8.531-8.535zM170.668 281.602h42.664a8.534 8.534 0 1 0 0-17.067h-42.664a8.533 8.533 0 1 0 0 17.067zM332.8 264.535h-85.335a8.532 8.532 0 0 0-8.531 8.531 8.533 8.533 0 0 0 8.53 8.536h85.337c4.71 0 8.531-3.82 8.531-8.536 0-4.71-3.82-8.53-8.531-8.53zm-162.132 51.199H256c4.71 0 8.535-3.82 8.535-8.535 0-4.71-3.824-8.531-8.535-8.531h-85.332a8.533 8.533 0 1 0 0 17.066zM332.8 298.668h-42.667a8.532 8.532 0 0 0-8.531 8.531 8.533 8.533 0 0 0 8.53 8.535h42.669c4.71 0 8.531-3.82 8.531-8.535 0-4.71-3.82-8.531-8.531-8.531zM170.668 401.066h42.664a8.533 8.533 0 1 0 0-17.066h-42.664a8.534 8.534 0 1 0 0 17.066zM332.8 384h-85.335a8.533 8.533 0 0 0-8.531 8.535 8.531 8.531 0 0 0 8.53 8.531h85.337a8.533 8.533 0 0 0 0-17.066zm-162.132 51.2H256c4.71 0 8.535-3.821 8.535-8.532a8.536 8.536 0 0 0-8.535-8.535h-85.332a8.534 8.534 0 1 0 0 17.066zM332.8 418.133h-42.667a8.533 8.533 0 0 0-8.531 8.535c0 4.71 3.82 8.531 8.53 8.531h42.669c4.71 0 8.531-3.82 8.531-8.531a8.533 8.533 0 0 0-8.531-8.535zm0 0"></path>
    <path d="M91.367 156.102a8.538 8.538 0 0 0-11.965.101 8.538 8.538 0 0 0-.101 11.965l17.066 17.066a8.544 8.544 0 0 0 6.031 2.5h.711a8.542 8.542 0 0 0 6.239-3.55l42.664-59.735a8.52 8.52 0 0 0 .82-8.492 8.528 8.528 0 0 0-14.71-1.422l-36.806 51.531zm0 0"></path>
  </symbol>
  <symbol viewBox="0 0 491.964 491" xmlns="http://www.w3.org/2000/svg" id="bot">
    <path d="M393.344 192.613a99.372 99.372 0 0 0-2.864-.066h-.074c-59.379-.64-108.738 45.57-112.015 104.86-.11 1.823-.157 16.113-.172 21.058l-19.754 51.754a10.651 10.651 0 0 0 1.18 9.851 10.66 10.66 0 0 0 8.785 4.618h24.949v28.464a29.1 29.1 0 0 0 8.91 21.059 29.484 29.484 0 0 0 21.3 8.27c.696-.024 5.583-.075 30.528-.18h.04a9.053 9.053 0 0 1 8.613 6.234v36.102c0 3.312 2.687 6 6 6h93.69a6.007 6.007 0 0 0 4.364-1.883 5.99 5.99 0 0 0 1.625-4.465c-.035-.637-3.633-64.328-.015-103.195.82-8.79 8.703-29.801 11.812-37.524a103.414 103.414 0 0 0-2.492-100.136 101.468 101.468 0 0 0-84.41-50.82zm72.535 54.36h-39.727c-16.422-.004-29.734-13.317-29.738-29.739V204.81a89.458 89.458 0 0 1 69.465 42.164zm-127.313-28.57v12.859c0 13.277-10.765 24.043-24.046 24.047h-11.856a98.88 98.88 0 0 1 35.902-36.907zm-47.773 74.468h15.809c7.007 0 12.691 5.684 12.691 12.691 0 7.012-5.684 12.692-12.691 12.692h-16.38c.024-9.129.083-18.945.15-20.156.097-1.758.237-3.5.421-5.227zm32.426 137.613a17.341 17.341 0 0 1-17.84-17.332v-34.464c0-3.313-2.684-6-6-6h-29.02l16.2-42.434h20.039c13.636 0 24.691-11.055 24.691-24.691s-11.055-24.692-24.691-24.692h-13.786a98.637 98.637 0 0 1 4.2-13.562h17.511c19.907 0 36.043-16.141 36.043-36.047V212.34a99.073 99.073 0 0 1 33.848-7.676v12.57c0 23.051 18.688 41.739 41.738 41.739H472.2a91.677 91.677 0 0 1 7.738 35.507l-43.59 10.852c-18.05-17.203-45.093-20.906-67.105-9.191-22.012 11.714-34.043 36.214-29.851 60.796 4.187 24.583 23.652 43.715 48.304 47.481-4.02 15.2-17.742 25.812-33.465 25.883h-.164c-19.129.082-29.507.144-30.847.183zm103.71-49.035l-13.12-19.344c7.46-8.707 7.32-21.59-.32-30.132-7.645-8.547-20.434-10.114-29.915-3.668-9.48 6.445-12.726 18.914-7.59 29.164 5.133 10.25 17.063 15.117 27.903 11.383l13.12 19.343c-21.652 10.895-48.042 3.125-60.331-17.77-12.285-20.89-6.254-47.734 13.789-61.359 20.043-13.628 47.222-9.367 62.133 9.747 14.906 19.109 12.43 46.511-5.668 62.636zm-20.41-30.09l-5.105-7.527a6.002 6.002 0 0 0-8.324-1.582 6.009 6.009 0 0 0-1.61 8.32l5.102 7.524c-.047 0-.094.008-.14.008a10.911 10.911 0 0 1-6.078-19.977 10.906 10.906 0 0 1 12.984.629 10.906 10.906 0 0 1 3.168 12.605zm-12.3 98.727a4.19 4.19 0 0 1 4.191-4.191 4.189 4.189 0 1 1 0 8.378 4.19 4.19 0 0 1-4.191-4.191zm75.011-111.277c-1.183 2.925-11.597 28.925-12.742 41.18-3.058 32.878-1.176 81.343-.343 98.652h-51.739v-13.532a16.192 16.192 0 1 0-21.898-18.094c-1.465 7.626 2.687 15.22 9.898 18.094v13.532H374.77v-30.942c0-.492-.063-.984-.184-1.465a21.034 21.034 0 0 0-3.352-7.183 46.916 46.916 0 0 0 28.645-34.082 57.435 57.435 0 0 0 23.918-6.774l7.098 10.465v13.559a16.19 16.19 0 0 0-9.934 18.07c1.445 7.625 8.105 13.148 15.867 13.168a16.188 16.188 0 1 0 6.066-31.21v-15.43a6.008 6.008 0 0 0-1.03-3.368l-8.15-12.008c22.407-18.808 27.208-51.398 11.177-75.87l34.367-8.551a92.021 92.021 0 0 1-9.778 31.261 3.6 3.6 0 0 0-.25.528zm-32.375 94.261a4.19 4.19 0 1 1 0 8.38 4.191 4.191 0 0 1-4.19-4.188 4.205 4.205 0 0 1 4.19-4.196zm0 0"></path>
    <path d="M375.695 382.828a41.343 41.343 0 0 0 22.399 5.578 5.996 5.996 0 0 0 5.758-6.23 5.998 5.998 0 0 0-6.227-5.762 29.346 29.346 0 0 1-15.902-3.957 5.994 5.994 0 0 0-6.024-.047 5.995 5.995 0 0 0-3.027 5.207 6.002 6.002 0 0 0 3.02 5.211zm57.895-53.531a41.742 41.742 0 0 0-3.328-5.7 40.907 40.907 0 0 0-4.867-5.773 5.994 5.994 0 0 0-5.817-1.527 5.993 5.993 0 0 0-4.219 4.281 5.995 5.995 0 0 0 1.614 5.793 29.438 29.438 0 0 1 3.445 4.086 29.517 29.517 0 0 1 2.36 4.05 29.033 29.033 0 0 1 2.702 16.138 5.995 5.995 0 0 0 5.239 6.671c.242.032.484.047.722.047a6.005 6.005 0 0 0 5.954-5.285 41.19 41.19 0 0 0 .292-4.906 40.883 40.883 0 0 0-4.097-17.875zm-61.574-15.317a41.022 41.022 0 0 0-14.024 18.348 5.995 5.995 0 1 0 6.512 8.2 5.998 5.998 0 0 0 4.676-3.868c2-5.195 5.445-9.707 9.933-13a6.002 6.002 0 0 0 1.262-8.37 6.005 6.005 0 0 0-8.363-1.306zm-158.278 4.485c-.011-4.945-.058-19.23-.168-21.016-3.254-59.336-52.668-105.582-112.09-104.902-.957.012-1.91.031-2.859.066a101.477 101.477 0 0 0-84.41 50.82 103.422 103.422 0 0 0-2.492 100.141c3.11 7.715 10.992 28.727 11.808 37.524 3.621 38.867.024 102.558-.015 103.199a6.01 6.01 0 0 0 5.992 6.348h93.691c3.313 0 6-2.688 6-6v-36.102a9.053 9.053 0 0 1 8.614-6.234h.039c24.945.101 29.832.156 30.523.18a29.477 29.477 0 0 0 21.3-8.27 29.069 29.069 0 0 0 8.911-21.059v-28.472h24.957a10.67 10.67 0 0 0 8.785-4.618 10.658 10.658 0 0 0 1.18-9.855zm-21.16 54.223c-3.312 0-6 2.687-6 6v34.464a17.336 17.336 0 0 1-17.832 17.332c-1.34-.039-11.719-.097-30.848-.183h-.164c-17.96-.07-32.902-13.82-34.464-31.711a6 6 0 0 0-11.961.976 46.8 46.8 0 0 0 29.421 39.485 21.034 21.034 0 0 0-3.351 7.183 5.95 5.95 0 0 0-.184 1.465v30.938H35.816c.832-17.305 2.72-65.774-.343-98.653-1.141-12.25-11.559-38.254-12.743-41.175a6.432 6.432 0 0 0-.242-.528 91.497 91.497 0 0 1 2.09-88.812 89.547 89.547 0 0 1 74.477-44.864c.847-.03 1.703-.05 2.554-.062 53.055-.715 97.2 40.605 99.98 93.594.071 1.23.134 11.972.153 21.457.004.726.137 1.445.395 2.125l19.46 50.969zm218.117-201.715c15.14-.016 27.41-12.286 27.426-27.426V27.907C438.105 12.77 425.836.5 410.695.48H193.547c-15.14.02-27.406 12.29-27.426 27.426v115.64c.02 15.142 12.285 27.411 27.426 27.427h8.719a1.406 1.406 0 0 1 1.43 1.02c4.894 27.69 23.05 36.335 27.327 38.007a6.077 6.077 0 0 0 3.707.629 6.32 6.32 0 0 0 5.168-4.82c.5-2.188.817-4.418.946-6.66 1.39-14.848 4.101-28.176 21.758-28.176zM229.18 195.125c-4.907-3.91-11.235-11.445-13.668-25.223a13.346 13.346 0 0 0-13.246-10.93h-8.723c-8.512-.007-15.414-6.91-15.422-15.425V27.907c.008-8.512 6.91-15.415 15.422-15.427h217.152c8.516.012 15.418 6.91 15.426 15.426v115.64c-.008 8.517-6.91 15.419-15.426 15.427H262.602c-27.778 0-32.067 23.386-33.422 36.152zm0 0"></path>
    <path d="M405.34 95.96h-54.902a6 6 0 1 0 0 12h54.902a6 6 0 0 0 0-12zm-74.832 6a6 6 0 0 0-6-6H237.98a6 6 0 0 0 0 12h86.528c3.312 0 6-2.687 6-6zm-131.606 6h18.887a6 6 0 0 0 0-12h-18.887a6 6 0 0 0 0 12zm192.102-26.788h14.336a6 6 0 1 0 0-12h-14.336a6 6 0 0 0 0 12zm-20.07 0a6 6 0 1 0 0-12h-24a6 6 0 0 0 0 12zm-172.032 0h127.801c3.317 0 6-2.684 6-6 0-3.313-2.683-6-6-6h-127.8a6 6 0 0 0 0 12zM393.75 49.035h11.59a6 6 0 1 0 0-12h-11.59c-3.313 0-6 2.684-6 6 0 3.313 2.688 6 6 6zm-69.984 0h49.64a6 6 0 0 0 0-12h-49.64a6 6 0 0 0 0 12zm-124.864 0h104.63a6 6 0 1 0 0-12h-104.63a6 6 0 1 0 0 12zm152.911 73.703h-2.22c-3.312 0-6 2.688-6 6s2.688 6 6 6h2.22a6.001 6.001 0 0 0 0-12zm-20.797 0h-39.664c-3.313 0-6 2.688-6 6s2.687 6 6 6h39.664a6.001 6.001 0 0 0 0-12zm-58.966 6c0-3.312-2.687-6-6-6h-67.148c-3.312 0-6 2.688-6 6s2.688 6 6 6h67.149c3.312 0 6-2.687 6-6zm0 0"></path>
  </symbol>
  <symbol xmlns="http://www.w3.org/2000/svg" viewBox="0 0 46.354 46.354" id="bookmark-star">
    <path d="M21.57 2.049a1.796 1.796 0 0 1 3.218 0l5.771 11.695c.261.529.767.896 1.352.981L44.817 16.6a1.792 1.792 0 0 1 .994 3.06l-9.338 9.104a1.796 1.796 0 0 0-.517 1.588l2.204 12.855a1.797 1.797 0 0 1-2.605 1.893l-11.544-6.07a1.793 1.793 0 0 0-1.67 0l-11.544 6.069a1.795 1.795 0 0 1-2.604-1.892l2.204-12.855a1.794 1.794 0 0 0-.517-1.588L.542 19.66a1.794 1.794 0 0 1 .995-3.06l12.908-1.875a1.794 1.794 0 0 0 1.351-.982L21.57 2.049z"></path>
  </symbol>
  <symbol xmlns="http://www.w3.org/2000/svg" viewBox="0 0 441.133 441.133" id="big-stopwatch">
    <path d="M259.161 70.727V47.574h4.027a6 6 0 0 0 6-6V28.119C269.189 12.614 256.574 0 241.07 0h-41.007c-15.505 0-28.119 12.614-28.119 28.119v13.456a6 6 0 0 0 6 6h4.03v23.153c-27.492 5.785-52.779 17.62-74.404 34.043L93.81 91.01c-4.824-4.822-12.673-4.822-17.497 0l-16.997 16.997a12.292 12.292 0 0 0-3.624 8.749c0 3.305 1.287 6.412 3.624 8.749l13.54 13.54c-24.738 31.737-39.497 71.616-39.497 114.88 0 103.227 83.981 187.208 187.208 187.208s187.207-83.981 187.207-187.208c0-89.999-63.841-165.36-148.613-183.198zm-75.217-42.608c0-8.888 7.231-16.119 16.119-16.119h41.007c8.888 0 16.119 7.231 16.119 16.119v7.456h-73.245v-7.456zm10.03 19.892h53.188v20.604a188.01 188.01 0 0 0-26.595-1.898c-9.027 0-17.903.656-26.593 1.897V48.011zM67.801 117.02c-.03-.03-.109-.109-.109-.264 0-.154.08-.233.109-.263l16.997-16.997a.372.372 0 0 1 .527 0l12.867 12.867a188.948 188.948 0 0 0-17.625 17.423L67.801 117.02zm152.766 312.113c-96.61 0-175.208-78.598-175.208-175.208S123.957 78.718 220.567 78.718c96.609 0 175.207 78.598 175.207 175.208s-78.598 175.207-175.207 175.207z"></path>
    <path d="M220.567 107.94c-80.497 0-145.985 65.489-145.985 145.985S140.071 399.91 220.567 399.91c80.497 0 145.985-65.489 145.985-145.985S301.064 107.94 220.567 107.94zm0 279.971c-73.88 0-133.985-60.105-133.985-133.985S146.687 119.94 220.567 119.94s133.985 60.105 133.985 133.985-60.105 133.986-133.985 133.986z"></path>
    <path d="M226.445 176.063a6 6 0 0 0-11.756 0s-15.812 75.082-15.812 77.862c0 11.959 9.73 21.689 21.689 21.689s21.688-9.729 21.688-21.689c.001-2.78-15.809-77.862-15.809-77.862zm-5.878 31.128l5.258 25.693a21.66 21.66 0 0 0-10.517 0l5.259-25.693zm0 56.423c-5.343 0-9.689-4.347-9.689-9.689s4.347-9.689 9.689-9.689 9.688 4.347 9.688 9.689-4.347 9.689-9.688 9.689zm-.001 83.233a6 6 0 0 0-6 6v23.235a6 6 0 0 0 12 0v-23.235a6 6 0 0 0-6-6zm0-185.845a6 6 0 0 0 6-6v-23.235a6 6 0 0 0-12 0v23.235a6 6 0 0 0 6 6zm-74.188 158.63l-16.43 16.43a6 6 0 1 0 8.486 8.485l16.43-16.43a6 6 0 1 0-8.486-8.485zm144.143-129.657a6.002 6.002 0 0 0 4.244-1.759l16.421-16.43a6 6 0 0 0-8.488-8.483l-16.254 16.264a5.984 5.984 0 0 0-1.928 4.408c0 3.313 2.691 6 6.005 6zm-168.882 57.954H98.404a6 6 0 0 0 0 12h23.235a6 6 0 0 0 0-12zm221.081-.009h-23.227a6 6 0 0 0 0 12h23.227a6 6 0 0 0 0-12zm-196.352-59.704a6 6 0 0 0 4.244 1.759h.009a5.997 5.997 0 0 0 4.142-10.335l-16.328-16.336a5.999 5.999 0 0 0-8.485-.002 5.999 5.999 0 0 0-.002 8.485l16.42 16.429zm148.387 131.416a5.999 5.999 0 0 0-8.485 0 5.999 5.999 0 0 0-.001 8.485l16.43 16.43a5.98 5.98 0 0 0 4.243 1.757 5.999 5.999 0 0 0 4.243-10.242l-16.43-16.43z"></path>
  </symbol>
  <symbol xmlns="http://www.w3.org/2000/svg" viewBox="0 0 512 512" id="barber">
    <path d="M450.979 280.435l-57.146-11.429 1.9-6.968a345.664 345.664 0 0 0 5.25-22.105A8 8 0 0 0 408 232a55.772 55.772 0 0 0-2.807-17.476c.765-6 1.382-12.044 1.823-18 .018-.166.033-.332.041-.5.1-1.337.176-2.683.26-4.027H408a32 32 0 1 0 0-64s-.035-42.287-.064-42.754v-.079a49.045 49.045 0 0 0-1.364-9.792l-.056-.219h-.016A56.086 56.086 0 0 0 352 32h-20.452a56.39 56.39 0 0 1-31.377-9.5A38.7 38.7 0 0 0 240 54.7v2.6a38.529 38.529 0 0 0 9.5 25.351A58.221 58.221 0 0 0 248 96v32a31.877 31.877 0 0 0-22.049 8.842 249.032 249.032 0 0 0-9.763-115.335 8 8 0 0 0-15.136-.192L152 158.9 102.945 21.313A8 8 0 0 0 95.411 16h-.1a8 8 0 0 0-7.5 5.506 250.307 250.307 0 0 0-.826 153.718l27.835 87.965-37.837 106.122a65.585 65.585 0 0 0-38.445 15.254 62.681 62.681 0 0 0-22.146 41.1 62.017 62.017 0 0 0 13.763 46.445 64.828 64.828 0 0 0 44.786 23.627q2.841.258 5.688.257a66.331 66.331 0 0 0 42.692-15.8c13.226-11.235 21.169-26.578 22.367-43.2a62.938 62.938 0 0 0-23.135-53.061l17.51-42.59a68.565 68.565 0 0 1 11.949-19.181 69.113 69.113 0 0 1 8.134 11.417C160.1 339.564 160 464 160 464a32.036 32.036 0 0 0 32 32h48a7.992 7.992 0 0 0 2.653-.453l85.357-30.011 85.336 30.011A7.993 7.993 0 0 0 416 496h48a32 32 0 0 0 32-32V335.35a56.158 56.158 0 0 0-45.021-54.915zM408 144a16 16 0 0 1 0 32zm-32 80a39.479 39.479 0 0 1-24.391-8.352A34.494 34.494 0 0 0 330.467 208h-4.933a34.495 34.495 0 0 0-21.143 7.648A39.479 39.479 0 0 1 280 224h-15.2a40.071 40.071 0 0 1 39.2-32h48a40.071 40.071 0 0 1 39.2 32zm8.618 16c-1.281 5.988-9.906 38.313-9.906 38.313A24.056 24.056 0 0 1 351.56 296h-47.12a24.055 24.055 0 0 1-23.151-17.684s-8.626-32.327-9.907-38.316H280a55.333 55.333 0 0 0 34.191-11.706A18.97 18.97 0 0 1 325.534 224h4.933a18.969 18.969 0 0 1 11.342 4.294A55.333 55.333 0 0 0 376 240zM320.41 133.47L306.234 176H304a55.643 55.643 0 0 0-22.722 4.836 11.984 11.984 0 0 1-4.045-4.285l-12.314-38.887A201.477 201.477 0 0 0 290.33 96h75.339a201.272 201.272 0 0 0 25.5 41.774l-11.695 40.817a11.8 11.8 0 0 1-3.074 3.009A55.663 55.663 0 0 0 352 176h-28.9l12.49-37.47zM264 111.325V96c0-.976.036-1.931.092-2.873a38.314 38.314 0 0 0 8.745 2.429q-4.081 8.163-8.837 15.769zm3.23 78.491c-.86.751-1.7 1.522-2.514 2.323-.132-2-.251-3.99-.34-5.955a27.952 27.952 0 0 0 2.854 3.632zm122.764 1.093a28.146 28.146 0 0 0 1.473-1.669c-.055.967-.125 1.929-.188 2.894q-.633-.624-1.285-1.225zM383.389 96H392v15.325q-4.624-7.389-8.611-15.325zM256 54.7a22.7 22.7 0 0 1 35.3-18.891A72.333 72.333 0 0 0 331.548 48H352a40.071 40.071 0 0 1 39.2 32H278.7A22.73 22.73 0 0 1 256 57.3zm-8 89.3v26.46c0 1.855.02 3.7.049 5.538H248a16 16 0 0 1 0-32zm-30.985 31.228c.391-1.236.764-2.476 1.136-3.716A32.046 32.046 0 0 0 248 192h.679c.083 1.341 1.363 16.524 2.128 22.525A55.778 55.778 0 0 0 248 232a8 8 0 0 0 7.013 7.933c1.511 7.428 7.154 29.075 7.154 29.075-1.1.218-48.4 9.681-57.161 11.439a56.416 56.416 0 0 0-8.782 2.519l-7.045-19.759zM102.238 170.4a234.267 234.267 0 0 1-5.78-119.636l47.047 131.964-19.8 55.527zm23.027 164.865l-19.883 48.361a8 8 0 0 0 3 9.721 47.1 47.1 0 0 1 21.351 42.5 46.533 46.533 0 0 1-16.766 32.158 49.958 49.958 0 0 1-36.576 11.8A48.946 48.946 0 0 1 42.554 462a46.141 46.141 0 0 1-10.262-34.548c2.745-24.453 24.77-43 50.119-42.227a8.025 8.025 0 0 0 7.779-5.31L207.55 50.731a233 233 0 0 1-5.789 119.669l-38.823 122.707a85.609 85.609 0 0 0-37.673 42.155zm49.958-7.48a85.141 85.141 0 0 0-11.344-16.345 71.257 71.257 0 0 1 9.31-5.66 7.994 7.994 0 0 0 4.016-4.726l3.987-12.6L207.2 361.4l-16.543 2.851-11.92-28.994a82.694 82.694 0 0 0-3.391-7.231 5.057 5.057 0 0 0-.123-.244zm.815 54.989l38.711-6.452 45.673 22.836a7.976 7.976 0 0 0 3.008.824l71.556 5.112a42.493 42.493 0 0 0-8.061 12.759l-13.356-2.671-3.138 15.69 13.356 2.671a42.467 42.467 0 0 0 2.365 14.382L266.654 427a7.943 7.943 0 0 0-1.174-.315l-56-10.546a8 8 0 0 0-4.451.434L176 428.183c.01-14.083.022-30.32.038-45.412zm62.484 55.117a16.187 16.187 0 0 1-13.64 10.347c-9.02.958-17.133-5.3-18.1-13.981a15.486 15.486 0 0 1-.08-1.117l2.111-.844zM227.638 479.8c-1.5.132-2.968.2-4.368.2-21.509 0-41.172-14.487-47.224-34.6l15.365-6.145a32.309 32.309 0 0 0 31.637 25.081 33.587 33.587 0 0 0 3.526-.187 32.034 32.034 0 0 0 27.8-23.272l7.545 1.42 8.323 2.927c-5.305 18.844-22.02 32.709-42.604 34.576zm50.671-13.75a62.478 62.478 0 0 0 7.046-15.515l18.54 6.52zM480 464a16.019 16.019 0 0 1-16 16h-46.634l-56.088-19.725.019-.1c-.277-.055-.548-.122-.82-.186l-5.6-1.968a26.874 26.874 0 0 1-14.951-21.257l30.84 6.168-2.522 12.61 15.69 3.138 2.522-12.61 13.073 2.615a21.907 21.907 0 1 0 3.14-15.685l-13.069-2.616 2.522-12.61-15.689-3.137-2.522 12.61-30.847-6.17A26.815 26.815 0 0 1 364.8 407.22l115.2 8.229zm-64.7-20.316a5.907 5.907 0 1 1 4.634 6.95 5.915 5.915 0 0 1-4.634-6.95zm64.7-44.276l-74.312-5.308 35.564-17.782L480 382.777zm0-32.852l-38.688-6.448a8.007 8.007 0 0 0-4.89.737L416 371.056V344h-16v35.056l-10.023 5.011-83.14 2.973-40.681-2.906L248 375.056V344h-16v23.056l-7.053-3.527-23.347-65.49a40.232 40.232 0 0 1 6.554-1.9c8.761-1.756 56.829-11.372 58.291-11.663a40.1 40.1 0 0 0 38 27.529h47.12a40.1 40.1 0 0 0 38-27.532l58.283 11.657A40.113 40.113 0 0 1 480 335.35z"></path>
    <path d="M84.422 401.01c-17.727-1.887-33.745 10.716-35.7 28.1a31.135 31.135 0 0 0 6.742 23.113 32.321 32.321 0 0 0 21.96 11.931 33.117 33.117 0 0 0 3.516.187c16.286 0 30.36-12.062 32.181-28.283a31.134 31.134 0 0 0-6.742-23.112 32.323 32.323 0 0 0-21.957-11.936zm12.8 33.258c-.973 8.663-9.1 14.929-18.1 13.971a16.432 16.432 0 0 1-11.179-6.039 15.247 15.247 0 0 1-3.318-11.311c.973-8.662 9.085-14.928 18.1-13.971a16.436 16.436 0 0 1 11.176 6.038 15.241 15.241 0 0 1 3.323 11.312zM144 256h16v16h-16z"></path>
    <circle cx="292" cy="148" r="12"></circle>
    <circle cx="364" cy="148" r="12"></circle>
  </symbol>
  <symbol viewBox="-144 0 480 480" xmlns="http://www.w3.org/2000/svg" id="barber-pole">
    <path d="M184 64h-8.473C171.422 27.586 140.645.05 104 0H88C51.355.05 20.578 27.586 16.473 64H8a8 8 0 0 0-8 8v32a8 8 0 0 0 8 8h8v256H8a8 8 0 0 0-8 8v32a8 8 0 0 0 8 8h8.473c4.105 36.414 34.882 63.95 71.527 64h16c36.645-.05 67.422-27.586 71.527-64H184a8 8 0 0 0 8-8v-32a8 8 0 0 0-8-8h-8V112h8a8 8 0 0 0 8-8V72a8 8 0 0 0-8-8zM88 16h16c27.824.035 51.418 20.465 55.434 48H68.449A31.894 31.894 0 0 1 96 48V32c-20.32.023-38.426 12.84-45.2 32H32.567C36.582 36.465 60.176 16.035 88 16zm72 308.688L116.687 368H67.314L160 275.312zm0-152l-128 128v-57.375l128-128zm-128 48v-49.375L91.313 112h49.374zm0-72V112h36.688zm0 174.625l128-128v57.375L44.687 368H32zM104 464H88c-27.824-.035-51.418-20.465-55.434-48h90.985A31.894 31.894 0 0 1 96 432v16c20.32-.023 38.426-12.84 45.2-32h18.234c-4.016 27.535-27.61 47.965-55.434 48zm72-64H16v-16h160zm-36.688-32L160 347.312V368zM176 96H16V80h160zm0 0"></path>
  </symbol>
</svg>