<svg width="0" height="0" class="hidden">
  <symbol viewBox="-45 0 327 327" xmlns="http://www.w3.org/2000/svg" id="pause">
    <path d="M158 0h71a8 8 0 0 1 8 8v311a8 8 0 0 1-8 8h-71a8 8 0 0 1-8-8V8a8 8 0 0 1 8-8zM8 0h71a8 8 0 0 1 8 8v311a8 8 0 0 1-8 8H8a8 8 0 0 1-8-8V8a8 8 0 0 1 8-8zm0 0"></path>
  </symbol>
  <symbol xmlns="http://www.w3.org/2000/svg" viewBox="0 0 494.148 494.148" id="play">
    <path d="M405.284 201.188L130.804 13.28C118.128 4.596 105.356 0 94.74 0 74.216 0 61.52 16.472 61.52 44.044v406.124c0 27.54 12.68 43.98 33.156 43.98 10.632 0 23.2-4.6 35.904-13.308l274.608-187.904c17.66-12.104 27.44-28.392 27.44-45.884.004-17.48-9.664-33.764-27.344-45.864z"></path>
  </symbol>
</svg>