<svg width="0" height="0" class="hidden">
  <symbol xmlns="http://www.w3.org/2000/svg" viewBox="0 0 15.563 11" id="youtube_alt">
    <path d="M15.308 1.76A1.974 1.974 0 0 0 13.624.21a77.384 77.384 0 0 0-11.662 0A1.971 1.971 0 0 0 .279 1.76a25.665 25.665 0 0 0 0 7.46 1.971 1.971 0 0 0 1.683 1.55 77.384 77.384 0 0 0 11.662 0 1.972 1.972 0 0 0 1.683-1.55 25.805 25.805 0 0 0 .001-7.46zm-9.15 5.88V3.27l4.117 2.18z"
      fill="#fff" fill-rule="evenodd"></path>
  </symbol>
  <symbol xmlns="http://www.w3.org/2000/svg" viewBox="0 0 18.657 10.88" id="vk">
    <path d="M9.132 10.72h1.114a.972.972 0 0 0 .508-.22.854.854 0 0 0 .154-.5s-.022-1.51.671-1.74 1.562 1.47 2.493 2.11a1.779 1.779 0 0 0 1.238.39l2.489-.04s1.3-.08.684-1.12a8.631 8.631 0 0 0-1.85-2.17c-1.56-1.47-1.351-1.23.528-3.77 1.145-1.54 1.6-2.49 1.46-2.89a1.059 1.059 0 0 0-.979-.28l-2.8.01a.592.592 0 0 0-.361.07.775.775 0 0 0-.247.3 16.666 16.666 0 0 1-1.035 2.22c-1.248 2.14-1.747 2.26-1.951 2.12-.474-.31-.356-1.24-.356-1.91 0-2.08.312-2.95-.606-3.17a4.5 4.5 0 0 0-1.308-.14 5.9 5.9 0 0 0-2.325.25c-.319.15-.565.51-.415.53a1.214 1.214 0 0 1 .827.42 2.744 2.744 0 0 1 .277 1.28s.165 2.45-.385 2.76c-.378.21-.9-.22-2.009-2.17a18.6 18.6 0 0 1-1-2.1.842.842 0 0 0-.231-.32 1.151 1.151 0 0 0-.43-.17L.624.49a.919.919 0 0 0-.546.18.592.592 0 0 0-.011.48S2.152 6.1 4.512 8.59a6.353 6.353 0 0 0 4.622 2.13z"
      fill="#fff" fill-rule="evenodd"></path>
  </symbol>
  <symbol xmlns="http://www.w3.org/2000/svg" viewBox="0 0 16.156 13.29" id="twitter">
    <path d="M16.153 1.57a6.748 6.748 0 0 1-1.9.53A3.394 3.394 0 0 0 15.71.24a6.673 6.673 0 0 1-2.105.81 3.3 3.3 0 0 0-2.42-1.06A3.342 3.342 0 0 0 7.87 3.35a3.536 3.536 0 0 0 .086.77A9.377 9.377 0 0 1 1.124.61 3.386 3.386 0 0 0 2.15 5.09a3.32 3.32 0 0 1-1.5-.42v.04a3.357 3.357 0 0 0 2.659 3.3 3.152 3.152 0 0 1-.873.12 3.205 3.205 0 0 1-.624-.06 3.331 3.331 0 0 0 3.1 2.33 6.6 6.6 0 0 1-4.117 1.44 6.869 6.869 0 0 1-.791-.05 9.318 9.318 0 0 0 5.081 1.51 9.436 9.436 0 0 0 9.432-9.56c0-.14 0-.29-.01-.43a6.944 6.944 0 0 0 1.646-1.74z"
      fill="#fff" fill-rule="evenodd"></path>
  </symbol>
  <symbol xmlns="http://www.w3.org/2000/svg" viewBox="0 0 9.281 16.22" id="ok">
    <path d="M4.64 8.36A4.185 4.185 0 1 0 .509 4.17 4.165 4.165 0 0 0 4.64 8.36zm0-5.92a1.735 1.735 0 1 1-1.71 1.73 1.724 1.724 0 0 1 1.71-1.73zm1.671 9.34a7.969 7.969 0 0 0 2.4-1.01 1.236 1.236 0 0 0 .38-1.69 1.2 1.2 0 0 0-1.669-.39 5.179 5.179 0 0 1-5.562 0 1.2 1.2 0 0 0-1.668.39 1.236 1.236 0 0 0 .379 1.69 7.969 7.969 0 0 0 2.4 1.01l-2.31 2.34a1.233 1.233 0 0 0 0 1.73 1.2 1.2 0 0 0 1.711 0l2.269-2.3 2.27 2.3a1.2 1.2 0 0 0 1.711 0 1.232 1.232 0 0 0 0-1.73z"
      fill="#fff" fill-rule="evenodd"></path>
  </symbol>
  <symbol xmlns="http://www.w3.org/2000/svg" viewBox="0 0 14.5 14.69" id="instagram">
    <path d="M7.256 1.32c1.934 0 2.163.01 2.927.05a3.927 3.927 0 0 1 1.345.25 2.167 2.167 0 0 1 .833.55 2.3 2.3 0 0 1 .542.84 4.167 4.167 0 0 1 .25 1.37c.035.77.042 1 .042 2.96s-.007 2.2-.042 2.97a4.09 4.09 0 0 1-.25 1.36 2.256 2.256 0 0 1-.542.85 2.422 2.422 0 0 1-.833.55 3.927 3.927 0 0 1-1.345.25c-.764.04-.993.04-2.927.04s-2.164 0-2.928-.04a3.927 3.927 0 0 1-1.345-.25 2.422 2.422 0 0 1-.833-.55 2.256 2.256 0 0 1-.542-.85 4.071 4.071 0 0 1-.249-1.36c-.035-.77-.043-1.01-.043-2.97s.008-2.19.043-2.96a4.147 4.147 0 0 1 .249-1.37 2.3 2.3 0 0 1 .542-.84 2.167 2.167 0 0 1 .833-.55 3.927 3.927 0 0 1 1.345-.25c.764-.04.993-.05 2.928-.05m0-1.32C5.288 0 5.041.01 4.269.04A5.136 5.136 0 0 0 2.51.39a3.413 3.413 0 0 0-1.283.84 3.638 3.638 0 0 0-.836 1.3 5.474 5.474 0 0 0-.336 1.79C.019 5.1.011 5.35.011 7.34s.008 2.25.044 3.03a5.407 5.407 0 0 0 .336 1.78A3.75 3.75 0 0 0 2.51 14.3a5.161 5.161 0 0 0 1.759.34c.772.04 1.019.05 2.987.05s2.214-.01 2.986-.05a5.156 5.156 0 0 0 1.759-.34 3.75 3.75 0 0 0 2.119-2.15 5.43 5.43 0 0 0 .337-1.78c.035-.78.043-1.03.043-3.03s-.008-2.24-.043-3.02a5.5 5.5 0 0 0-.337-1.79 3.638 3.638 0 0 0-.836-1.3 3.413 3.413 0 0 0-1.283-.84 5.131 5.131 0 0 0-1.759-.35C9.47.01 9.223 0 7.256 0zm0 3.57a3.77 3.77 0 1 0 3.72 3.77 3.747 3.747 0 0 0-3.72-3.77zm0 6.22A2.445 2.445 0 1 1 9.67 7.34a2.435 2.435 0 0 1-2.414 2.45zm4.736-6.37a.87.87 0 1 1-.869-.88.872.872 0 0 1 .871.88z"
      fill="#fff" fill-rule="evenodd"></path>
  </symbol>
  <symbol xmlns="http://www.w3.org/2000/svg" viewBox="0 0 9.25 18.09" id="fb">
    <path d="M6.005 18.1V9.85h2.733l.409-3.22H6.005V4.58a1.326 1.326 0 0 1 1.572-1.57h1.681V.13A21.678 21.678 0 0 0 6.809 0C4.386 0 2.727 1.5 2.727 4.26v2.37h-2.74v3.22h2.74v8.25h3.278z" fill="#fff" fill-rule="evenodd"></path>
  </symbol>
</svg>